<svg xmlns="http://www.w3.org/2000/svg" viewBox="0 0 500 500"><g id="freepik--background-complete--inject-174"><path d="M361.12,475.94c-20.47-15.36-24.31-42.71-22.65-67.12.27-4.08,0-8.4,2-11.91s6.67-5.81,10.27-4c3,1.52,4.18,5.09,5.78,8.06a23.83,23.83,0,0,0,9.26,9.47c2.55,1.43,5.74,2.37,8.35,1,3.58-1.83,4.16-6.67,4.27-10.73l.63-22.7c.11-4,.24-8.2,1.63-12s4.3-7.29,8.2-8.24,8.59,1.44,9.27,5.44c.29,1.66-.11,3.36-.05,5.05s.78,3.58,2.36,4.1,3.27-.56,4.52-1.71c4.33-4,7.35-9.14,10.18-14.29s5.59-10.45,9.54-14.79,9.33-7.71,15.15-7.84,11.89,3.66,13.17,9.42-2.25,11.46-6,16a90.52,90.52,0,0,1-19.47,17.34c-1.31.86-2.73,1.8-3.26,3.28-1,2.68,1.5,5.45,4.14,6.43,3,1.11,6.28.91,9.43,1.39s6.53,2,7.63,5c1.52,4.2-2.1,8.43-5.6,11.16a77.63,77.63,0,0,1-23.41,12.49c-3,1-6.2,1.84-8.68,3.86s-4,5.61-2.69,8.52,5.06,3.95,8.2,3.47,6-2.07,9-3.1c5.65-1.91,12.84-1.29,16.25,3.65,2.24,3.25,2.3,7.67,1,11.4S435.7,451,433,453.93c-9.29,10.18-21,18.24-34.11,22.28s-25.11,4.86-37.81-.27" style="fill:#ebebeb"></path><path d="M368,460.83a362.19,362.19,0,0,1,15.75-38.66c1.57-3.35,3.13-6.66,4.65-9.92s3.06-6.48,4.74-9.54a180.2,180.2,0,0,1,10.68-17c3.66-5.26,7.32-10.12,10.78-14.63s6.78-8.66,10-12.31a143.44,143.44,0,0,1,16.27-16.07c2.06-1.74,3.71-3,4.84-3.91l1.28-1a2.7,2.7,0,0,1,.46-.31,3.24,3.24,0,0,1-.41.37l-1.24,1c-1.1.9-2.71,2.24-4.74,4a151.37,151.37,0,0,0-16.06,16.21c-3.15,3.66-6.43,7.81-9.87,12.33s-7.08,9.39-10.71,14.65a182.07,182.07,0,0,0-10.6,17c-1.67,3.05-3.17,6.25-4.71,9.51s-3.07,6.57-4.64,9.92a371.4,371.4,0,0,0-15.78,38.56" style="fill:#e0e0e0"></path><path d="M393.31,402.68a7.3,7.3,0,0,1-.34-1.74c-.18-1.13-.38-2.77-.59-4.8-.44-4.06-.85-9.69-1.29-15.89s-.92-11.82-1.42-15.86c-.24-2-.45-3.65-.62-4.78a8.28,8.28,0,0,1-.16-1.77,8,8,0,0,1,.45,1.72c.25,1.11.54,2.74.85,4.76.64,4,1.22,9.66,1.65,15.87s.78,11.67,1.06,15.9c.14,1.91.26,3.52.36,4.82A8.23,8.23,0,0,1,393.31,402.68Z" style="fill:#e0e0e0"></path><path d="M445.8,394.69a9.72,9.72,0,0,1-2.08.18c-1.35.08-3.29.17-5.69.37-4.79.35-11.4,1.08-18.66,2.19s-13.77,2.43-18.46,3.51c-2.35.52-4.24,1-5.55,1.31a10.7,10.7,0,0,1-2.05.43,11,11,0,0,1,2-.71c1.29-.41,3.16-1,5.5-1.55,4.68-1.22,11.21-2.6,18.48-3.74a183.77,183.77,0,0,1,18.74-2c2.41-.13,4.36-.15,5.71-.13A11.13,11.13,0,0,1,445.8,394.69Z" style="fill:#e0e0e0"></path><path d="M368.62,459.89a3.1,3.1,0,0,1-.33-.65c-.23-.52-.5-1.15-.83-1.92-.71-1.66-1.68-4.11-2.84-7.14-2.31-6.06-5.25-14.53-8.36-23.93s-6-17.88-8.15-24c-1.07-3-1.95-5.41-2.61-7.22l-.7-2a2.32,2.32,0,0,1-.19-.71,3.5,3.5,0,0,1,.33.65c.23.52.5,1.15.83,1.92.71,1.67,1.68,4.11,2.84,7.14,2.31,6.06,5.25,14.53,8.36,23.93s6,17.89,8.15,24c1.07,3,1.95,5.4,2.61,7.21l.7,2A2.39,2.39,0,0,1,368.62,459.89Z" style="fill:#e0e0e0"></path><path d="M438.7,439.89a3.12,3.12,0,0,1-.69.26l-2,.6-7.5,2.16c-6.34,1.82-15.06,4.44-24.7,7.34s-18.39,5.44-24.77,7.13c-3.19.85-5.77,1.51-7.57,1.93l-2.07.47a2.42,2.42,0,0,1-.74.11,3,3,0,0,1,.7-.26l2-.61,7.5-2.15c6.34-1.82,15.06-4.44,24.7-7.34s18.39-5.45,24.77-7.14c3.18-.84,5.77-1.5,7.57-1.92L438,440A2.37,2.37,0,0,1,438.7,439.89Z" style="fill:#e0e0e0"></path><circle cx="419.14" cy="140.44" r="52.63" style="fill:#ebebeb"></circle><g style="opacity:0.30000000000000004"><path d="M416.76,91.82c0,.18-1.16.24-3.19.39a51.87,51.87,0,0,0-8.49,1.36,51.33,51.33,0,0,0-5.63,1.78,47.17,47.17,0,0,0-6.09,2.91A42.42,42.42,0,0,0,374,121.41a48.45,48.45,0,0,0-1.8,6.51,50.17,50.17,0,0,0-.77,5.85,50.77,50.77,0,0,0,.15,8.6c.2,2,.34,3.17.17,3.21s-.59-1-1.08-3.07a36.85,36.85,0,0,1-.91-8.8,44.51,44.51,0,0,1,.51-6.13,46,46,0,0,1,1.67-6.88,42.07,42.07,0,0,1,20.4-24.35,46.53,46.53,0,0,1,6.48-2.84,44.26,44.26,0,0,1,5.94-1.57,36.77,36.77,0,0,1,8.83-.65C415.64,91.42,416.77,91.67,416.76,91.82Z" style="fill:#fff"></path></g><g style="opacity:0.30000000000000004"><path d="M375.87,158.44c-.53.36-2.07-1-2.87-3.35s-.44-4.36.2-4.4,1.34,1.62,2,3.63S376.43,158.08,375.87,158.44Z" style="fill:#fff"></path></g><path d="M434.93,133.91a4.29,4.29,0,0,1-.69,1.39,17.39,17.39,0,0,1-2.7,3.27,19.73,19.73,0,0,1-25.83,1.28,16.72,16.72,0,0,1-3-3c-.61-.79-.88-1.27-.83-1.31s1.39,1.73,4.23,3.76a21,21,0,0,0,5.41,2.76,19.9,19.9,0,0,0,7.3,1,20.16,20.16,0,0,0,7.17-1.77,20.8,20.8,0,0,0,5.1-3.29A43.55,43.55,0,0,0,434.93,133.91Z" style="fill:#fff"></path><path d="M449.93,95a10.46,10.46,0,0,0-7.55,3.23,10.49,10.49,0,0,0-18.06,7.28c0,9.34,18.06,20.64,18.06,20.64s18.06-11.3,18.06-20.64A10.52,10.52,0,0,0,449.93,95Z" style="fill:#e0e0e0"></path><path d="M403.46,95a10.46,10.46,0,0,0-7.55,3.23,10.49,10.49,0,0,0-18.06,7.28c0,9.34,18.06,20.64,18.06,20.64S414,114.82,414,105.48A10.52,10.52,0,0,0,403.46,95Z" style="fill:#e0e0e0"></path><circle cx="92.34" cy="257.85" r="43.13" transform="translate(-180.18 285.14) rotate(-76.01)" style="fill:#ebebeb"></circle><path d="M130.8,252.21c.65,0,1.37,1.1,1.89,3.32a26.5,26.5,0,0,1,.15,9.53,38.75,38.75,0,0,1-4.71,13.53,40.26,40.26,0,0,1-28.42,20,38.57,38.57,0,0,1-14.33-.11,26.48,26.48,0,0,1-8.92-3.36c-1.91-1.23-2.74-2.29-2.49-2.89.56-1.33,5.11-.33,12-.56a49.6,49.6,0,0,0,11.79-1.78,40.25,40.25,0,0,0,22.79-16,49.53,49.53,0,0,0,5.64-10.5C128.77,256.91,129.37,252.29,130.8,252.21Z" style="fill:#e0e0e0"></path><path d="M105.28,252.51c.12.05-.53,1.83-2.66,3.94a16,16,0,0,1-21.39,1.07c-2.33-1.89-3.15-3.6-3-3.66s1.25,1.33,3.58,2.93a16.31,16.31,0,0,0,20.24-1C104.17,254,105.09,252.39,105.28,252.51Z" style="fill:#fff"></path><path d="M74.72,243.77a3.92,3.92,0,0,0-3.92-2.06,2.65,2.65,0,0,0-1.34.45l0,0h0a4.25,4.25,0,0,0-1.58,4A3.78,3.78,0,0,0,72.67,249,3.89,3.89,0,0,0,74.72,243.77Z" style="fill:#fff"></path><path d="M120,247.94c-.22,0,0-1.4-.73-3.29a6.94,6.94,0,0,0-2.09-2.75,6.32,6.32,0,0,0-3.93-1.25,6.23,6.23,0,0,0-3.88,1.39,6.79,6.79,0,0,0-2,2.82c-.72,1.91-.4,3.27-.62,3.3s-.81-1.31-.25-3.58A7.14,7.14,0,0,1,117.9,241a7.12,7.12,0,0,1,2.21,3.37C120.75,246.6,120.1,248,120,247.94Z" style="fill:#fff"></path><path d="M76.47,65.9a6.7,6.7,0,1,1-6-7.3A6.69,6.69,0,0,1,76.47,65.9Z" style="fill:#e0e0e0"></path><path d="M75.71,63.59c-.35.22-4.18-5.72-7.48-13.7s-5.86-14.4-5.54-14.57,3.63,6,6.9,14S76.06,63.38,75.71,63.59Z" style="fill:#e0e0e0"></path><path d="M75.69,29.11c.35.15-1.4,3.5-5.37,5.55s-7.71,1.6-7.63,1.23,3.38-.63,6.94-2.53S75.33,28.85,75.69,29.11Z" style="fill:#e0e0e0"></path><path d="M78,35.67c.38.12-1.22,3.53-5.24,5.25s-7.59.61-7.42.26,3.31,0,6.83-1.61S77.64,35.42,78,35.67Z" style="fill:#e0e0e0"></path><path d="M51.8,187.91a4.54,4.54,0,1,1-3.53-5.37A4.54,4.54,0,0,1,51.8,187.91Z" style="fill:#e0e0e0"></path><path d="M51.46,186.3c-.39.19-2.66-4.07-4.29-9.71s-2.74-10.15-2.36-10.3,2.27,4.26,3.87,9.85S51.85,186.11,51.46,186.3Z" style="fill:#e0e0e0"></path><path d="M59.47,164.93c.24.28-2.54,2.86-7.06,3.69a10.62,10.62,0,0,1-5.76-.42c-1.43-.56-2-1.4-1.88-1.53s.89.24,2.2.47a14.36,14.36,0,0,0,5.17-.08C56.2,166.34,59.21,164.51,59.47,164.93Z" style="fill:#e0e0e0"></path><path d="M66.45,186.56a4.54,4.54,0,1,1-3.53-5.37A4.56,4.56,0,0,1,66.45,186.56Z" style="fill:#e0e0e0"></path><path d="M66.11,184.94c-.39.19-2.65-4.07-4.28-9.7s-2.74-10.16-2.36-10.31,2.26,4.27,3.86,9.85S66.5,184.76,66.11,184.94Z" style="fill:#e0e0e0"></path><path d="M60.47,167.87c.3.27-2.19,2.91-6.4,3.84s-7.58-.37-7.42-.75,3.31.09,7.08-.79S60.18,167.5,60.47,167.87Z" style="fill:#e0e0e0"></path></g><g id="freepik--Character--inject-174"><path d="M211,394.17a188.92,188.92,0,0,0-8.81,20.25c-3.69,10.31-11.09,66.46-11.09,66.46l152.61-.44,3.43-.16s-4.68-69.47-24.5-92.12Z" style="fill:#263238"></path><path d="M359.2,276.18c-1.85-1.95-4.13-3.59-5.35-6-3.18-6.24,2.29-13.7,1.12-20.6-1.63-9.66-14.17-12.5-20.61-19.89-7.76-8.9-5.29-22.37-3.36-34,2.3-13.9,3.14-28.38-.94-41.86-2.05-6.78-6.72-13.63-12.55-19.3a45.42,45.42,0,0,0-29.82-12.62h0c-10-.42-19.28,10-27.46,15.82-17.59,12.44-26.92,25.68-30.33,49.58-4.4,30.86,6.34,62.59,24.63,87.83,14.81,20.44,35.41,37.74,60,43.58,9,2.13,18.48,2.68,27.33.11s17-8.5,20.84-16.86S365.55,282.86,359.2,276.18Z" style="fill:#263238"></path><path d="M326.79,278.47a10.19,10.19,0,0,0,.86-3.5,14,14,0,0,0-3.5-9c-1.27-1.67-2.86-3.36-4.39-5.35a16.61,16.61,0,0,1-3.48-7.27,9.2,9.2,0,0,1,.3-4.46c.5-1.49,1.49-2.69,2-4A3.57,3.57,0,0,0,318,241c-.92-1.16-2.24-2.16-3.21-3.57a15.48,15.48,0,0,1-2.56-9.2,28.08,28.08,0,0,1,1.65-8.72c1.81-5.33,3.95-9.91,4.65-14a18.85,18.85,0,0,0-.48-9.76,20.34,20.34,0,0,0-1.6-3.27,8.74,8.74,0,0,1,1.94,3.14,18.65,18.65,0,0,1,.79,10c-.64,4.27-2.75,8.94-4.49,14.2a28,28,0,0,0-1.55,8.47,14.61,14.61,0,0,0,2.41,8.65c.86,1.28,2.14,2.24,3.18,3.54a5.26,5.26,0,0,1,1.08,2.3,4.57,4.57,0,0,1-.35,2.5c-.63,1.49-1.59,2.66-2,4a8.37,8.37,0,0,0-.29,4,16,16,0,0,0,3.25,7c1.47,2,3,3.69,4.3,5.41,2.64,3.4,3.58,7,3.33,9.41a7,7,0,0,1-.71,2.67A2.81,2.81,0,0,1,326.79,278.47Z" style="fill:#455a64"></path><path d="M304.78,250.62s-.13-.17-.29-.52a12.48,12.48,0,0,1-.62-1.56,20.94,20.94,0,0,1-1-6.11,34.42,34.42,0,0,1,1.08-9.12,81.27,81.27,0,0,1,3.55-10.63c1.47-3.68,2.84-7.18,3.84-10.44a41.94,41.94,0,0,0,1.81-8.82c.42-5.15-.7-8.26-.49-8.3a8.65,8.65,0,0,1,.68,2.16,23.05,23.05,0,0,1,.46,6.18,38.89,38.89,0,0,1-1.64,9c-1,3.32-2.33,6.86-3.79,10.53a86.57,86.57,0,0,0-3.58,10.5,35.91,35.91,0,0,0-1.26,8.9C303.48,247.59,305,250.56,304.78,250.62Z" style="fill:#455a64"></path><path d="M238,218.74c-1.68,1.12-40.29-.56-45.89,6.71,0,0,6,152.49,18.91,168.72l111.64-6L308.44,248.42l6.41-15.17-33.75-10Z" style="fill:#FF5050"></path><g style="opacity:0.2"><path d="M201.21,328.16c4.54,1.55,9.69.47,13.78-2s7.25-6.29,9.87-10.3c7.42-11.37,11-24.88,12.37-38.39s.49-27.12-.38-40.67c-1.38,13.68-2.77,27.4-5.92,40.79s-8.13,26.49-16.15,37.66a28.94,28.94,0,0,1-7.28,7.56,12.91,12.91,0,0,1-10.05,2.09"></path></g><path d="M240.8,182.68A21.25,21.25,0,0,1,234,170.22a16.19,16.19,0,0,1,4.12-13.34,13.08,13.08,0,0,1,13.27-3.41" style="fill:#FF5050"></path><path d="M267.3,125.7c10.21-6,17.57-5.72,25.63-4,12.23,2.6,24.21,9.63,30.76,20.27,6,9.78,6.57,22.19,3.69,33.3-1,3.92-3.57,7.06-6.05,10.26s-8.41,6.17-12.44,6.6-5-1.25-6.8-4.86c-1.12-2.21-1.24-4.77-1.36-7.24C300.19,169.57,299,159,295,149.33S283.56,131,273.73,127.45" style="fill:#455a64"></path><path d="M254.53,144.67a25,25,0,0,1,12.77-19c5.27-2.82,11.43-3.63,17.39-3.28,8,.48,16.1,3.12,22,8.59s9.15,14,7.18,21.78c-.9,3.53-2.82,6.85-2.91,10.49,0,1.59.23,3.33-.7,4.61a3.77,3.77,0,0,1-3.92,1.21,8.41,8.41,0,0,1-3.66-2.24c-3.6-3.38-6-7.82-8.3-12.18" style="fill:#263238"></path><path d="M253.09,148.25c4.56-10.36,16.37-20.79,26.52-15.79l29.94,20.46a6.64,6.64,0,0,1,3.24,8.36L280,239.55h0l-11.81,6.76c-10.92,6.26-25-.62-26.19-13.15a8.06,8.06,0,0,1,0-2.16h0a15.47,15.47,0,0,1,.35-1.73,55.39,55.39,0,0,1,3.86-11h0c2.28-6.45,3.25-9.08,3.23-9s-12.73-7.23-9-25.94C242.28,174,248,159.76,253.09,148.25Z" style="fill:#ffbe9d"></path><path d="M251.55,160.76c.17.4,2.36-.24,4.8.66s3.77,2.78,4.15,2.58c.18-.08.09-.72-.48-1.58a6.74,6.74,0,0,0-3.19-2.43,6.3,6.3,0,0,0-3.95-.15C251.91,160.14,251.46,160.58,251.55,160.76Z" style="fill:#263238"></path><path d="M275.93,170c.17.4,2.36-.24,4.79.66s3.78,2.78,4.16,2.58c.17-.09.09-.72-.49-1.58a6.57,6.57,0,0,0-3.19-2.43,6.38,6.38,0,0,0-3.95-.16C276.29,169.38,275.84,169.83,275.93,170Z" style="fill:#263238"></path><path d="M261.77,181c.06-.14-1.36-1-3.7-2.18-.6-.29-1.14-.63-1.09-1.09a3.38,3.38,0,0,1,1.09-1.7l3.59-4.06c5-5.82,8.93-10.69,8.69-10.89s-4.51,4.35-9.55,10.16l-3.52,4.12a3.93,3.93,0,0,0-1.22,2.33,1.69,1.69,0,0,0,.69,1.29,4.3,4.3,0,0,0,1,.53C260.18,180.57,261.71,181.14,261.77,181Z" style="fill:#263238"></path><path d="M249.48,209.26a48,48,0,0,0,26,2.38s-10.45,10.05-27.53,1.9Z" style="fill:#eb996e"></path><path d="M290.24,163.61c.18-.73-2.16-1.9-4.48-3.9s-3.91-4.07-4.6-3.77c-.32.15-.34.94.11,2.06a9.82,9.82,0,0,0,2.78,3.72,9.93,9.93,0,0,0,4.14,2.13C289.37,164.1,290.14,164,290.24,163.61Z" style="fill:#263238"></path><path d="M264.64,149.71c-.41-.63-2.25-.17-4.39-.33s-3.93-.74-4.4-.16c-.21.28,0,.89.77,1.52a6.4,6.4,0,0,0,7.08.4C264.51,150.6,264.81,150,264.64,149.71Z" style="fill:#263238"></path><path d="M296.9,189.05c.49-1.31,3.15-3.86,4.53-3.58,3.67.73,9.82,3.31,6.64,12.15-4.35,12.08-15.58,5.22-15.48,4.87S295.22,193.6,296.9,189.05Z" style="fill:#ffbe9d"></path><path d="M297.93,199.24c.07,0,.16.22.46.51a2.19,2.19,0,0,0,1.56.6c1.44,0,3.25-1.65,4.09-3.8a7.47,7.47,0,0,0,.5-3.23,2.57,2.57,0,0,0-1-2.18,1.13,1.13,0,0,0-1.45.13c-.28.28-.29.54-.36.54s-.19-.29.09-.76a1.44,1.44,0,0,1,.75-.58,1.64,1.64,0,0,1,1.27.11,3.15,3.15,0,0,1,1.53,2.66,7.65,7.65,0,0,1-.49,3.63c-.95,2.41-3,4.24-4.94,4.12a2.4,2.4,0,0,1-1.81-1C297.85,199.54,297.88,199.25,297.93,199.24Z" style="fill:#eb996e"></path><path d="M278.72,129.77a17.55,17.55,0,0,0,6.22,16.82c2.64,2.08,6.15,3.73,6.93,7s-1.75,6.75-1.12,10.12c.89,4.68,7.37,7,7.55,11.74.08,2.08-1.15,4.05-1,6.12.16,2.77,2.84,5,5.6,5.13a9.52,9.52,0,0,0,7.31-3.33,26,26,0,0,0,4.24-7.1c2.23-5,4.28-10.14,4.62-15.57.71-11.39-8.52-31.12-19.42-34.5" style="fill:#263238"></path><path d="M300.47,132.34c-.07.29-5.1-1.83-11.53-1s-10.85,3.94-11,3.67a8.53,8.53,0,0,1,2.82-2.06A22.54,22.54,0,0,1,297.25,131,8.5,8.5,0,0,1,300.47,132.34Z" style="fill:#455a64"></path><path d="M287.32,126.61c0,.28-3,.52-5.86,2.8s-3.84,5.14-4.1,5,0-.81.48-2a10.6,10.6,0,0,1,7.46-5.87C286.54,126.39,287.32,126.5,287.32,126.61Z" style="fill:#455a64"></path><path d="M263.56,193.42c2.39-.45,4.59-1.76,4.85-4.27a2.66,2.66,0,0,0-1.11-2.75,4.53,4.53,0,0,0-2.44-.42c-2.54.6-4.77,1.34-7.37,1.27,0,0-1.24,2.37,0,4.17S261.17,193.87,263.56,193.42Z" style="fill:#eb996e"></path><path d="M260.69,193.38s.32.07.9.1a9.15,9.15,0,0,0,2.42-.26,5.26,5.26,0,0,0,3-1.72,4.32,4.32,0,0,0,.95-4,1.91,1.91,0,0,0-1.44-1.35,4.26,4.26,0,0,0-2,.21,15.53,15.53,0,0,1-3.62.86,19.5,19.5,0,0,1-2.5.08,3.62,3.62,0,0,1-.92-.08c0-.1,1.31-.1,3.38-.36a18.25,18.25,0,0,0,3.53-.95,4.54,4.54,0,0,1,2.26-.26,2.45,2.45,0,0,1,1.84,1.68,4.73,4.73,0,0,1-1.09,4.46,5.16,5.16,0,0,1-1.63,1.24,8.31,8.31,0,0,1-4.21.62C261,193.58,260.67,193.41,260.69,193.38Z" style="fill:#263238"></path><path d="M192.46,224.51s-6.62,6.05-9.13,12.23c-3.12,7.67-14.82,21.73-14.35,32.91.37,8.63,3.46,22.76,26.2,18.88s25.65-21.06,25.65-21.06l-12.1-37.75Z" style="fill:#FF5050"></path><g style="opacity:0.30000000000000004"><path d="M192.67,224.86s-7.22,6.09-9.34,11.88c-2.85,7.77-14.82,21.73-14.35,32.91.37,8.63,3.46,22.76,26.2,18.88s13.18-18.66,13.18-18.66l.37-40.15Z"></path></g><path d="M209.22,263.6s-20.1-13-39.56.55c-.38.26.64-2.55,2.23-6,3-6.39,7.7-15.57,7.7-15.57s10.3-19.17,15.28-19.17l14.35,4.34Z" style="fill:#FF5050"></path><path d="M181.54,258.82s-2.46,28.49-1.85,39.4,10.58,40.51,31.06,25.35S238.28,220.8,238.28,220.8L223,214.15l-17.91,47.31A31.76,31.76,0,0,0,194,258.32,37.94,37.94,0,0,0,181.54,258.82Z" style="fill:#ffbe9d"></path><path d="M222.69,216.39l-8.33-40.29,8.35-20.19a5.42,5.42,0,0,1,3,5.38c-.31,3.94-4.06,13.43-4.06,13.43l10.69-14.62s3,1.29,1.41,4.88-6.45,11.25-6.45,11.25l5.21,13.63s1.09-7.05,3.41-6.52,1.86,6.44,1.86,6.44l-.48,11.67s3.71,7.87,2.8,13a25.66,25.66,0,0,1-2.71,8.15Z" style="fill:#ffbe9d"></path><path d="M325.79,241.67c-5.12-6.76-11.17-8.27-11.17-8.27l-9,17.37,12.22,43.44c9.68-5.53,20.32-9,29.18-8.37C347,285.84,332.8,250.91,325.79,241.67Z" style="fill:#FF5050"></path><g style="opacity:0.2"><path d="M315.51,233.38c3,6.14-.44,13.38-.42,20.23,0,10.68,8.58,19.76,9.32,30.41.2,2.85-.26,5.92-2.13,8.08s-5.47,2.95-7.66,1.1a8.86,8.86,0,0,1-2.3-4.11l-8.82-25.71c-1.21-3.53-2.44-7.19-2.08-10.9.7-7.19,6.95-12.38,12.71-16.73"></path></g><ellipse cx="302.29" cy="192.18" rx="15.67" ry="14.64" transform="translate(46.12 442.56) rotate(-76.79)" style="fill:#FF5050"></ellipse><path d="M297.58,207.18s-.16-.05-.43-.21a9.31,9.31,0,0,1-1.13-.75,12.28,12.28,0,0,1-3.32-3.72,14.76,14.76,0,0,1-1.85-7.16,17,17,0,0,1,2-8.82,17.25,17.25,0,0,1,6.26-6.54,13.59,13.59,0,0,1,7.13-2,9.49,9.49,0,0,1,4.82,1.27,5.93,5.93,0,0,1,1.09.82c.23.21.34.33.32.35s-.52-.4-1.54-.93a9.68,9.68,0,0,0-4.69-1,13.43,13.43,0,0,0-6.8,2.07,16.84,16.84,0,0,0-6,6.33,16.65,16.65,0,0,0-2,8.47,14.74,14.74,0,0,0,1.63,6.93,13.53,13.53,0,0,0,3.07,3.75A15,15,0,0,1,297.58,207.18Z" style="fill:#263238"></path><path d="M291.78,181.37c.19,0,0,1.19.73,2.21s1.91,1.16,1.89,1.35-.3.19-.8.11a2.77,2.77,0,0,1-1.65-1,2.7,2.7,0,0,1-.51-1.88C291.51,181.6,291.7,181.35,291.78,181.37Z" style="fill:#263238"></path><path d="M291.27,186.2c.11-.16.55-.06,1.06.07s.93.27.94.47-.5.37-1.12.2S291.17,186.36,291.27,186.2Z" style="fill:#263238"></path><path d="M288.32,198.81c.1-.17.79.07,1.62-.07s1.43-.52,1.58-.39-.38.93-1.48,1.08S288.19,199,288.32,198.81Z" style="fill:#263238"></path><path d="M315.43,190.39s13.07-2.76,15.94-9.37a27.84,27.84,0,0,1-.86,11.41l-18,8.56Z" style="fill:#FF5050"></path><path d="M316.72,189.41a5.49,5.49,0,0,1,.25,1.72,17.67,17.67,0,0,1-.13,4.21,9.7,9.7,0,0,1-1.51,4c-.62.9-1.19,1.29-1.23,1.25s.4-.54.92-1.45a11.5,11.5,0,0,0,1.31-3.85,28.9,28.9,0,0,0,.28-4.11A5.77,5.77,0,0,1,316.72,189.41Z" style="fill:#263238"></path><path d="M288.05,314.27a6.82,6.82,0,0,1-.29.78l-.92,2.18c-.21.48-.43,1-.68,1.58s-.58,1.17-.91,1.83c-.67,1.3-1.37,2.82-2.34,4.39-.47.79-1,1.63-1.46,2.49s-1.13,1.72-1.72,2.63c-1.16,1.84-2.59,3.66-4.05,5.61a91.07,91.07,0,0,1-23.54,21.08c-2.1,1.24-4.07,2.46-6,3.41-1,.49-1.88,1-2.8,1.42l-2.64,1.18c-1.67.79-3.26,1.32-4.62,1.85-.69.25-1.32.51-1.92.7s-1.14.35-1.64.5l-2.27.68a4.41,4.41,0,0,1-.8.2,4.36,4.36,0,0,1,.77-.3l2.24-.77,1.62-.54c.59-.21,1.21-.48,1.89-.74,1.36-.55,2.93-1.1,4.58-1.91l2.61-1.21c.91-.42,1.82-.94,2.78-1.44,1.93-1,3.89-2.19,6-3.44a93.61,93.61,0,0,0,23.41-21c1.47-1.94,2.9-3.74,4.07-5.56.6-.9,1.21-1.74,1.73-2.6s1-1.68,1.49-2.47c1-1.55,1.71-3,2.4-4.33.34-.65.67-1.25.95-1.81s.5-1.08.71-1.55c.42-.9.76-1.61,1-2.14A5.31,5.31,0,0,1,288.05,314.27Z" style="fill:#263238"></path><path d="M210.25,236.77a52.17,52.17,0,0,0-2.57-7.44,54.89,54.89,0,0,0-4.12-6.71,8.09,8.09,0,0,1,1.61,1.69,24.91,24.91,0,0,1,4.8,10.14A7.66,7.66,0,0,1,210.25,236.77Z" style="fill:#263238"></path><path d="M288.22,291.89c-.05,0-.6-.89-1.85-2.35a26.9,26.9,0,0,0-6.14-5.25A26.33,26.33,0,0,0,269,280.5a25.64,25.64,0,0,0-24.44,13.15,26.34,26.34,0,0,0-3.05,11.49,26.78,26.78,0,0,0,1,8c.53,1.85,1,2.81.94,2.84a4,4,0,0,1-.34-.7,18.21,18.21,0,0,1-.79-2.08,25.25,25.25,0,0,1-1.17-8.08,26.15,26.15,0,0,1,3-11.72A25.89,25.89,0,0,1,269,280a26.35,26.35,0,0,1,11.42,4,25.59,25.59,0,0,1,6.11,5.43,21.41,21.41,0,0,1,1.3,1.81A3.87,3.87,0,0,1,288.22,291.89Z" style="fill:#fafafa"></path><path d="M273.31,333.92a4.7,4.7,0,0,1-1.16.27,10.58,10.58,0,0,1-1.39.18,16.78,16.78,0,0,1-1.85.1,19.57,19.57,0,0,1-2.25-.07,25.51,25.51,0,0,1-2.57-.33,26.45,26.45,0,0,1-10.8-4.68,25.11,25.11,0,0,1-2-1.64,18.32,18.32,0,0,1-1.59-1.59,16.56,16.56,0,0,1-1.2-1.42,9.24,9.24,0,0,1-.81-1.14,5.07,5.07,0,0,1-.6-1c.09-.06,1,1.38,2.87,3.34a20.21,20.21,0,0,0,1.62,1.51,24.27,24.27,0,0,0,2,1.58,27.25,27.25,0,0,0,10.61,4.6c.89.15,1.72.31,2.52.37s1.53.12,2.21.14C271.63,334.15,273.3,333.81,273.31,333.92Z" style="fill:#fafafa"></path><path d="M267.77,309.39a22.75,22.75,0,0,1-1.72,3c-1.12,1.83-2.69,4.34-4.53,7s-3.63,5.08-5,6.74c-.69.83-1.25,1.49-1.66,1.93s-.64.67-.67.65a27,27,0,0,1,2-2.81c1.28-1.71,3-4.11,4.85-6.81l4.65-7A23,23,0,0,1,267.77,309.39Z" style="fill:#fafafa"></path><path d="M286.6,317.58c-.06.13-4.32-1.71-9.52-4.11s-9.37-4.46-9.31-4.59,4.32,1.71,9.53,4.11S286.66,317.45,286.6,317.58Z" style="fill:#fafafa"></path><path d="M265.56,281.92a2.26,2.26,0,0,1,.08.53c0,.41.08.91.14,1.53.14,1.4.33,3.29.57,5.6.54,4.8,1.27,11.3,2.08,18.47s1.58,13.68,2.13,18.48c.25,2.31.45,4.2.6,5.6,0,.62.1,1.12.13,1.53a1.74,1.74,0,0,1,0,.54,3.36,3.36,0,0,1-.11-.53c-.06-.4-.14-.9-.23-1.51-.19-1.4-.45-3.29-.76-5.59-.63-4.72-1.45-11.24-2.29-18.46s-1.52-13.75-1.93-18.49c-.21-2.37-.33-4.3-.4-5.63,0-.62,0-1.12,0-1.53A1.75,1.75,0,0,1,265.56,281.92Z" style="fill:#fafafa"></path><path d="M256.28,306.32a4.36,4.36,0,0,1-.35,1.17,17.1,17.1,0,0,1-1.52,3,19,19,0,0,1-19.08,8.62,17.15,17.15,0,0,1-3.24-.84,4.06,4.06,0,0,1-1.11-.5,36,36,0,0,0,4.4,1,19.38,19.38,0,0,0,18.72-8.45A36.94,36.94,0,0,0,256.28,306.32Z" style="fill:#263238"></path><g style="opacity:0.2"><path d="M233.18,319.1c-1.67-1.65-4.82-.87-6,1.18a5.84,5.84,0,0,0,1.07,6.49,11.41,11.41,0,0,0,6.12,3.18,20.42,20.42,0,0,0,15.16-2.48,17.57,17.57,0,0,0,8.12-12.87,2.94,2.94,0,0,0-.79-2.75c-1.23-.88-2.83.28-4,1.27a25.4,25.4,0,0,1-21.79,5.64"></path></g><g style="opacity:0.2"><path d="M245,369.1a72.39,72.39,0,0,0,39.71-25c1.53-1.92,3.35-4.1,5.8-4.08a4.69,4.69,0,0,1,4,2.75,7.55,7.55,0,0,1,.32,5c-1.22,4.87-5.57,8.2-9.73,11-5.94,4-12.13,7.76-18.92,10s-14.27,3-21.11.85"></path></g><path d="M222.71,155.91s.13,0,.34.12a2.93,2.93,0,0,1,.88.53,5,5,0,0,1,1.76,3.31,13.41,13.41,0,0,1-.58,5.56l-2.2,6.44c-.34,1-.69,2-1,2.93v-.17c1.42,3.83,2.64,7.2,3.49,9.62l1,2.86a5.18,5.18,0,0,1,.3,1,4.68,4.68,0,0,1-.47-1l-1.13-2.8c-.93-2.39-2.21-5.74-3.65-9.56l0-.09,0-.08c.33-.95.67-1.94,1-2.94l2.23-6.41a13.43,13.43,0,0,0,.67-5.37,5,5,0,0,0-1.52-3.21,4.06,4.06,0,0,0-.8-.59A1.52,1.52,0,0,1,222.71,155.91Z" style="fill:#eb996e"></path><path d="M237.87,205.52c-.07,0-.56-1-1.5-2.46a30,30,0,0,0-4.33-5.39,30.63,30.63,0,0,0-5.46-4.23c-1.52-.91-2.53-1.38-2.49-1.46a2.69,2.69,0,0,1,.74.24,15.76,15.76,0,0,1,1.93.91,25.24,25.24,0,0,1,9.92,9.74,18.33,18.33,0,0,1,.95,1.9C237.82,205.24,237.91,205.5,237.87,205.52Z" style="fill:#eb996e"></path><path d="M236.24,201.89c-.15,0-.85-3-2-6.57s-2.4-6.43-2.26-6.49a7,7,0,0,1,1,1.77,43.23,43.23,0,0,1,1.79,4.56,44.43,44.43,0,0,1,1.27,4.72A7.48,7.48,0,0,1,236.24,201.89Z" style="fill:#eb996e"></path><path d="M297.31,214.69s-5.39,0-6.09,7.51a93.74,93.74,0,0,1-1.41,10.55s-7,9.61-7,14.54,1.61,15.17,1.61,15.17l22.82-5.82-1.56-6,14.42-26.08,8.44-27.2s-3.05-1.88-5.16,0-6.09,9.14-6.09,9.14-4.23-5.62-7-5.39a2.23,2.23,0,0,0-1.86,1.2,3.44,3.44,0,0,0,.86,4.2l2.41,2.11-.71,7.24-12.42,11.52Z" style="fill:#ffbe9d"></path><path d="M303.35,237.69a6.54,6.54,0,0,1,.68-1.27,25.17,25.17,0,0,1,2.43-3.08c1.12-1.23,2.55-2.58,4.12-4.1a32.59,32.59,0,0,0,4.64-5.27,15.2,15.2,0,0,0,2.46-6.48,27.51,27.51,0,0,0,.13-5.74c-.11-1.64-.27-3-.37-3.88a7.55,7.55,0,0,1-.11-1.43,8.8,8.8,0,0,1,.31,1.4c.16.91.38,2.23.54,3.88a26,26,0,0,1,0,5.84,15.34,15.34,0,0,1-2.49,6.69,31.69,31.69,0,0,1-4.75,5.34c-1.59,1.5-3,2.81-4.18,4a31.89,31.89,0,0,0-2.53,2.95A9.45,9.45,0,0,1,303.35,237.69Z" style="fill:#eb996e"></path><path d="M311.8,215.33a6.65,6.65,0,0,1-.95.93l-2.72,2.4c-2.3,2-5.47,4.81-8.92,8s-6.51,6.06-8.74,8.16c-1.05,1-1.94,1.83-2.64,2.48a7.1,7.1,0,0,1-1,.87,6.48,6.48,0,0,1,.87-1c.59-.63,1.45-1.51,2.53-2.6,2.15-2.18,5.19-5.13,8.64-8.28s6.67-5.9,9-7.85c1.19-1,2.15-1.75,2.83-2.27A6.21,6.21,0,0,1,311.8,215.33Z" style="fill:#eb996e"></path><path d="M284.38,262.46s13.81,75.46,17.53,81,14.36,21.26,26.28,19.82,18.92-13.95,20.4-25.6-9.2-52.25-9.2-52.25c-9.92-1.1-12.75.41-19.35,6.22l-12.84-35Z" style="fill:#ffbe9d"></path><path d="M306.08,250.23a10.44,10.44,0,0,1-1.29,1.78l-3.22,4.22c-2.5,3.31-4.81,5.79-4.93,5.68a10.24,10.24,0,0,1,1.29-1.79l3.22-4.21C303.65,252.59,306,250.11,306.08,250.23Z" style="fill:#eb996e"></path><path d="M331,328.88a4.89,4.89,0,0,1,0-.83c0-.54,0-1.35-.07-2.38a51.37,51.37,0,0,0-1.23-8.63,77.22,77.22,0,0,0-4-12.31c-.92-2.26-2-4.59-3-7.05s-2-5-3.08-7.64c-4.09-10.53-7.51-20.16-10-27.13l-2.84-8.29-.73-2.26a6,6,0,0,1-.23-.8,3.8,3.8,0,0,1,.32.76l.83,2.23c.73,2,1.75,4.79,3,8.23,2.53,7,6,16.55,10.1,27.07,1,2.62,2.05,5.18,3.06,7.63s2.07,4.79,3,7.07A75,75,0,0,1,330.05,317a47.2,47.2,0,0,1,1.07,8.71c0,1,0,1.84,0,2.38A4.41,4.41,0,0,1,331,328.88Z" style="fill:#eb996e"></path><path d="M222.49,215.43s0,.08-.06.23l-.22.66c-.22.61-.52,1.44-.89,2.49-.82,2.21-2,5.32-3.38,9.16l-11.32,30.12c-1.11,2.93-2.19,5.83-3.48,8.51s-2.65,5.2-4,7.59-2.55,4.65-3.62,6.81a53.68,53.68,0,0,0-2.6,6.19,31.14,31.14,0,0,0-1.72,9.51,11.12,11.12,0,0,0,0,1.53l0,1.12c0,.27,0,.5,0,.69a.82.82,0,0,1,0,.23.56.56,0,0,1,0-.23c0-.19,0-.41-.07-.69s0-.69-.09-1.12a10.57,10.57,0,0,1,0-1.53,30.1,30.1,0,0,1,1.57-9.63,53,53,0,0,1,2.56-6.25c1.06-2.19,2.28-4.48,3.59-6.86s2.65-4.91,3.92-7.58,2.34-5.53,3.45-8.47c4.47-11.73,8.52-22.34,11.47-30.07,1.47-3.81,2.68-6.91,3.53-9.1.41-1,.74-1.86,1-2.46l.27-.64A.72.72,0,0,1,222.49,215.43Z" style="fill:#eb996e"></path></g><g id="freepik--Device--inject-174"><path d="M342.88,20l-156.52-.09A34.09,34.09,0,0,0,152.25,54l-.08,392.39a34.09,34.09,0,0,0,34.08,34.1l156.52.1a34.1,34.1,0,0,0,34.11-34.09L377,54.08A34.1,34.1,0,0,0,342.88,20Zm23.63,420.77a23.88,23.88,0,0,1-23.89,23.87l-156.21-.09a23.88,23.88,0,0,1-23.87-23.88l.08-383a23.87,23.87,0,0,1,23.89-23.87h37.23a7.54,7.54,0,0,1,7.37,7.71V47a7.54,7.54,0,0,0,7.37,7.71l59.15,0A7.53,7.53,0,0,0,305,47v-5.5a7.54,7.54,0,0,1,7.37-7.7l30.35,0a23.88,23.88,0,0,1,23.86,23.88Z" style="fill:#455a64"></path><rect x="171.86" y="69.13" width="190.89" height="2.78" rx="1.24" style="fill:#e0e0e0"></rect><rect x="171.86" y="69.13" width="104.54" height="2.78" rx="1.24" style="fill:#FF5050"></rect><path d="M230.48,94.29v4.3h-.82L227.51,96v2.61h-1v-4.3h.82l2.14,2.61V94.29Z" style="fill:#263238"></path><path d="M231.31,94.29a.55.55,0,0,1,.6-.54.54.54,0,1,1-.6.54Zm.12,1h1v3.3h-1Z" style="fill:#263238"></path><path d="M233,96.94a1.71,1.71,0,0,1,1.85-1.7,1.52,1.52,0,0,1,1.48.84l-.75.4a.82.82,0,0,0-.74-.46.92.92,0,0,0,0,1.84.82.82,0,0,0,.74-.46l.75.41a1.53,1.53,0,0,1-1.48.83A1.71,1.71,0,0,1,233,96.94Z" style="fill:#263238"></path><path d="M238.3,97.3l-.46.45v.84h-1V94h1v2.58l1.4-1.32h1.15L239,96.69l1.5,1.9h-1.16Z" style="fill:#263238"></path><path d="M244.3,96.7v1.89h-1V96.85c0-.54-.25-.78-.67-.78s-.8.28-.8.89v1.63h-1v-3.3h.92v.38a1.47,1.47,0,0,1,1.1-.43A1.29,1.29,0,0,1,244.3,96.7Z" style="fill:#263238"></path><path d="M248.09,96.71v1.88h-.9v-.41a1.09,1.09,0,0,1-1,.46c-.77,0-1.23-.43-1.23-1s.41-1,1.42-1h.76c0-.41-.25-.65-.76-.65a1.62,1.62,0,0,0-1,.31l-.34-.67a2.53,2.53,0,0,1,1.43-.4C247.5,95.24,248.09,95.7,248.09,96.71Zm-1,.84v-.34h-.66c-.45,0-.59.17-.59.39s.2.4.54.4A.71.71,0,0,0,247.13,97.55Z" style="fill:#263238"></path><path d="M254.54,96.7v1.89h-1V96.85c0-.54-.24-.78-.62-.78s-.74.27-.74.86v1.66h-1V96.85c0-.54-.22-.78-.62-.78s-.73.27-.73.86v1.66h-1v-3.3h.92v.38a1.3,1.3,0,0,1,1-.43,1.23,1.23,0,0,1,1.09.54,1.47,1.47,0,0,1,1.19-.54A1.27,1.27,0,0,1,254.54,96.7Z" style="fill:#263238"></path><path d="M258.66,97.21h-2.51a.89.89,0,0,0,1,.66,1.11,1.11,0,0,0,.83-.32l.51.56a1.93,1.93,0,0,1-3.25-1.17,1.68,1.68,0,0,1,1.76-1.7A1.64,1.64,0,0,1,258.68,97C258.68,97,258.66,97.13,258.66,97.21Zm-2.52-.56h1.63a.83.83,0,0,0-1.63,0Z" style="fill:#263238"></path><path d="M231.11,102.66,230,105.74h-.4l-1-2.52-1,2.52h-.39l-1.15-3.08h.39l1,2.62,1-2.62h.36l1,2.62,1-2.62Z" style="fill:#263238"></path><path d="M234,103.83v1.91h-.39v-.48a1.15,1.15,0,0,1-1.06.51c-.7,0-1.12-.36-1.12-.9s.3-.87,1.18-.87h1v-.18a.76.76,0,0,0-.87-.82,1.52,1.52,0,0,0-1,.37l-.19-.31a1.9,1.9,0,0,1,1.25-.42A1.09,1.09,0,0,1,234,103.83Zm-.41,1v-.51h-1c-.6,0-.79.24-.79.55s.28.58.77.58A1,1,0,0,0,233.54,104.82Z" style="fill:#263238"></path><path d="M234.65,105.39l.19-.33a1.86,1.86,0,0,0,1.09.35c.59,0,.83-.2.83-.51,0-.8-2-.17-2-1.38,0-.5.43-.88,1.22-.88a2.05,2.05,0,0,1,1.09.29l-.19.33a1.53,1.53,0,0,0-.9-.26c-.56,0-.8.21-.8.51,0,.83,2,.2,2,1.38,0,.53-.47.88-1.27.88A2.09,2.09,0,0,1,234.65,105.39Z" style="fill:#263238"></path><path d="M239.46,101.4h.42v4.34h-.42Z" style="fill:#263238"></path><path d="M240.94,101.7a.31.31,0,0,1,.61,0,.3.3,0,0,1-.31.3A.29.29,0,0,1,240.94,101.7Zm.09,1h.42v3.08H241Z" style="fill:#263238"></path><path d="M245.18,102.66l-1.36,3.08h-.43L242,102.66h.43l1.15,2.62,1.17-2.62Z" style="fill:#263238"></path><path d="M248.35,104.33h-2.57A1.14,1.14,0,0,0,247,105.4a1.19,1.19,0,0,0,.94-.4l.24.27a1.54,1.54,0,0,1-1.19.5,1.52,1.52,0,0,1-1.61-1.57,1.5,1.5,0,1,1,3,0S248.35,104.28,248.35,104.33Zm-2.57-.31H248a1.09,1.09,0,0,0-2.18,0Z" style="fill:#263238"></path><path d="M248.93,105.45a.31.31,0,0,1,.31-.32.32.32,0,1,1,0,.64A.31.31,0,0,1,248.93,105.45Z" style="fill:#263238"></path><path d="M254.4,104.56c0,.69-.5,1.21-1.48,1.21a2.16,2.16,0,0,1-1.48-.52l.21-.34a1.76,1.76,0,0,0,1.27.48c.67,0,1.05-.32,1.05-.83s-.35-.81-1.11-.81h-.29v-.31l1.14-1.42h-2.1v-.37h2.63v.3l-1.15,1.45C254,103.45,254.4,103.91,254.4,104.56Z" style="fill:#263238"></path><path d="M258.09,104v1.78h-.42V104c0-.65-.33-1-.92-1a1,1,0,0,0-1.07,1.11v1.61h-.42V101.4h.42v1.8a1.3,1.3,0,0,1,1.15-.56A1.17,1.17,0,0,1,258.09,104Z" style="fill:#263238"></path><path d="M263.06,103.83v1.91h-.4v-.48a1.13,1.13,0,0,1-1.05.51c-.7,0-1.13-.36-1.13-.9s.31-.87,1.19-.87h1v-.18a.76.76,0,0,0-.87-.82,1.54,1.54,0,0,0-1,.37l-.18-.31a1.9,1.9,0,0,1,1.25-.42A1.09,1.09,0,0,1,263.06,103.83Zm-.41,1v-.51h-1c-.59,0-.79.24-.79.55s.29.58.78.58A1,1,0,0,0,262.65,104.82Z" style="fill:#263238"></path><path d="M267,102.66v2.71a1.34,1.34,0,0,1-1.53,1.53,2.19,2.19,0,0,1-1.44-.47l.21-.32a1.81,1.81,0,0,0,1.21.42c.78,0,1.14-.35,1.14-1.11V105a1.39,1.39,0,0,1-1.2.59,1.49,1.49,0,1,1,0-3,1.39,1.39,0,0,1,1.22.62v-.6Zm-.4,1.47a1.17,1.17,0,1,0-1.17,1.12A1.1,1.1,0,0,0,266.64,104.13Z" style="fill:#263238"></path><path d="M267.89,104.2a1.57,1.57,0,1,1,1.57,1.57A1.52,1.52,0,0,1,267.89,104.2Zm2.71,0a1.15,1.15,0,1,0-1.14,1.2A1.12,1.12,0,0,0,270.6,104.2Z" style="fill:#263238"></path><path d="M181.2,142.59a.54.54,0,0,1-.36-.14L176.4,138a.47.47,0,0,1-.15-.35.48.48,0,0,1,.15-.36l4.45-4.31a.5.5,0,1,1,.69.71l-4.08,4,4.09,4.05a.49.49,0,0,1,0,.7A.5.5,0,0,1,181.2,142.59Z" style="fill:#263238"></path><path d="M349.6,142.59a.5.5,0,0,1-.34-.86l4.08-4-4.09-4a.5.5,0,0,1,0-.71.51.51,0,0,1,.71,0l4.44,4.4a.51.51,0,0,1,0,.72L350,142.45A.5.5,0,0,1,349.6,142.59Z" style="fill:#263238"></path><rect x="174.1" y="411.14" width="184.62" height="37.32" rx="16.69" style="fill:#fff"></rect><path d="M342,448.46s.37,0,1.07-.08a8.08,8.08,0,0,0,1.31-.15,11.12,11.12,0,0,0,1.78-.37,15.81,15.81,0,0,0,4.65-2,17,17,0,0,0,5-4.8,16.67,16.67,0,0,0,2.75-8.13c0-3.16.38-6.72-.8-10.25a16.57,16.57,0,0,0-7.27-9,16.36,16.36,0,0,0-6.05-2.13,56.8,56.8,0,0,0-6.83-.18l-146.79.07A16.52,16.52,0,0,0,175.09,423c-1.38,6.54-1.42,14.27,3.14,19.37a16.57,16.57,0,0,0,8.21,5.25,17.46,17.46,0,0,0,4.82.6h24l66,.06,44.49.08,12.1.05,3.14,0,1.07,0-1.07,0-3.14,0-12.1.05-44.49.08-66,.06h-24a17.85,17.85,0,0,1-5-.62,16.93,16.93,0,0,1-8.46-5.4,18.42,18.42,0,0,1-2.69-4.39,17.86,17.86,0,0,1-1.23-5.05c-.13-1.75-.06-3.45-.08-5.19a18.93,18.93,0,0,1,.75-5.22,17,17,0,0,1,16.21-12l146.79.08a57.93,57.93,0,0,1,6.88.2A16.87,16.87,0,0,1,358,422.57a18,18,0,0,1,.84,5.35c0,1.74.05,3.4-.07,5a16.89,16.89,0,0,1-2.83,8.23,17.3,17.3,0,0,1-5,4.81,15.7,15.7,0,0,1-4.7,2,11.29,11.29,0,0,1-1.8.35,7.74,7.74,0,0,1-1.32.12C342.4,448.46,342,448.46,342,448.46Z" style="fill:#FF5050"></path><circle cx="340.31" cy="429.57" r="11.16" style="fill:#FF5050"></circle><path d="M340,436.46h0a.33.33,0,0,1-.3-.25l-1.43-5.28-4.95-1.76a.32.32,0,0,1-.23-.32.35.35,0,0,1,.22-.32L345,424.37a.34.34,0,0,1,.37.09.35.35,0,0,1,.06.37l-5.06,11.43A.34.34,0,0,1,340,436.46Zm-5.58-7.61,4.22,1.49a.36.36,0,0,1,.22.23l1.22,4.52,4.34-9.81Z" style="fill:#fff"></path><path d="M338.54,431a.36.36,0,0,1-.25-.11.35.35,0,0,1,0-.49l6.53-6a.35.35,0,0,1,.49,0,.34.34,0,0,1,0,.48l-6.53,6A.36.36,0,0,1,338.54,431Z" style="fill:#fff"></path><path d="M215.75,426.72H214v-.47h4.12v.47h-1.79v4.63h-.54Z" style="fill:#263238"></path><path d="M221.81,427.52l-1.92,4.29c-.32.75-.73,1-1.27,1a1.35,1.35,0,0,1-.94-.35l.24-.39a1,1,0,0,0,.7.3c.35,0,.58-.16.8-.64l.17-.38-1.72-3.82h.54l1.44,3.25,1.45-3.25Z" style="fill:#263238"></path><path d="M226.42,429.43a1.86,1.86,0,0,1-1.91,2,1.68,1.68,0,0,1-1.46-.76v2.13h-.51v-5.24H223v.76a1.69,1.69,0,0,1,1.48-.79A1.86,1.86,0,0,1,226.42,429.43Zm-.52,0a1.43,1.43,0,1,0-1.42,1.5A1.41,1.41,0,0,0,225.9,429.43Z" style="fill:#263238"></path><path d="M230.82,429.59h-3.21a1.42,1.42,0,0,0,1.51,1.34,1.53,1.53,0,0,0,1.17-.5l.29.33a1.87,1.87,0,0,1-1.48.63,1.9,1.9,0,0,1-2-2,1.85,1.85,0,0,1,1.88-1.94,1.82,1.82,0,0,1,1.85,1.94Zm-3.21-.38h2.72a1.36,1.36,0,0,0-2.72,0Z" style="fill:#263238"></path><path d="M236.68,429v2.37h-.49v-.6a1.44,1.44,0,0,1-1.32.64c-.87,0-1.4-.45-1.4-1.12s.38-1.08,1.48-1.08h1.22V429c0-.65-.38-1-1.09-1a2,2,0,0,0-1.27.45l-.24-.38a2.44,2.44,0,0,1,1.56-.52A1.36,1.36,0,0,1,236.68,429Zm-.51,1.22v-.63H235c-.74,0-1,.29-1,.69s.36.72,1,.72A1.24,1.24,0,0,0,236.17,430.2Z" style="fill:#263238"></path><path d="M246.32,429.13v2.22h-.51v-2.17c0-.81-.41-1.23-1.1-1.23a1.24,1.24,0,0,0-1.29,1.39v2h-.51v-2.17c0-.81-.41-1.23-1.11-1.23a1.24,1.24,0,0,0-1.28,1.39v2H240v-3.83h.5v.7a1.54,1.54,0,0,1,1.4-.73,1.36,1.36,0,0,1,1.36.81,1.67,1.67,0,0,1,1.52-.81A1.45,1.45,0,0,1,246.32,429.13Z" style="fill:#263238"></path><path d="M251.08,429.59h-3.2a1.42,1.42,0,0,0,1.51,1.34,1.53,1.53,0,0,0,1.17-.5l.29.33a1.87,1.87,0,0,1-1.48.63,1.9,1.9,0,0,1-2-2,1.85,1.85,0,0,1,1.87-1.94,1.82,1.82,0,0,1,1.86,1.94C251.09,429.48,251.08,429.54,251.08,429.59Zm-3.2-.38h2.72a1.35,1.35,0,0,0-1.37-1.28A1.33,1.33,0,0,0,247.88,429.21Z" style="fill:#263238"></path><path d="M251.62,430.91l.23-.4a2.34,2.34,0,0,0,1.36.43c.73,0,1-.25,1-.63,0-1-2.48-.21-2.48-1.73,0-.63.54-1.09,1.51-1.09a2.59,2.59,0,0,1,1.36.36l-.23.41a2,2,0,0,0-1.13-.33c-.69,0-1,.27-1,.64,0,1,2.49.25,2.49,1.72,0,.67-.58,1.1-1.58,1.1A2.54,2.54,0,0,1,251.62,430.91Z" style="fill:#263238"></path><path d="M255.18,430.91l.24-.4a2.29,2.29,0,0,0,1.36.43c.73,0,1-.25,1-.63,0-1-2.49-.21-2.49-1.73,0-.63.54-1.09,1.52-1.09a2.58,2.58,0,0,1,1.35.36l-.22.41a2,2,0,0,0-1.13-.33c-.7,0-1,.27-1,.64,0,1,2.48.25,2.48,1.72,0,.67-.58,1.1-1.58,1.1A2.58,2.58,0,0,1,255.18,430.91Z" style="fill:#263238"></path><path d="M262.17,429v2.37h-.49v-.6a1.44,1.44,0,0,1-1.32.64c-.87,0-1.4-.45-1.4-1.12s.38-1.08,1.48-1.08h1.21V429c0-.65-.37-1-1.08-1a2,2,0,0,0-1.28.45l-.23-.38a2.42,2.42,0,0,1,1.56-.52A1.36,1.36,0,0,1,262.17,429Zm-.52,1.22v-.63h-1.2c-.74,0-1,.29-1,.69s.35.72,1,.72A1.22,1.22,0,0,0,261.65,430.2Z" style="fill:#263238"></path><path d="M267.14,427.52v3.36a1.68,1.68,0,0,1-1.91,1.92,2.68,2.68,0,0,1-1.79-.59l.26-.39a2.34,2.34,0,0,0,1.51.52c1,0,1.41-.44,1.41-1.39v-.49a1.71,1.71,0,0,1-1.49.74,1.86,1.86,0,1,1,0-3.71,1.74,1.74,0,0,1,1.52.76v-.73Zm-.5,1.82a1.46,1.46,0,1,0-1.46,1.41A1.37,1.37,0,0,0,266.64,429.34Z" style="fill:#263238"></path><path d="M271.93,429.59h-3.21a1.42,1.42,0,0,0,1.51,1.34,1.55,1.55,0,0,0,1.18-.5l.29.33a2,2,0,0,1-3.49-1.33,1.84,1.84,0,0,1,1.87-1.94,1.82,1.82,0,0,1,1.86,1.94C271.94,429.48,271.93,429.54,271.93,429.59Zm-3.21-.38h2.72a1.36,1.36,0,0,0-2.72,0Z" style="fill:#263238"></path><path d="M272.66,431a.39.39,0,1,1,.78,0,.39.39,0,1,1-.78,0Z" style="fill:#263238"></path><path d="M274.2,431a.39.39,0,1,1,.78,0,.39.39,0,1,1-.78,0Z" style="fill:#263238"></path><path d="M275.75,431a.39.39,0,1,1,.78,0,.39.39,0,1,1-.78,0Z" style="fill:#263238"></path><path d="M191.11,433a2,2,0,0,1-3.1-2.59l4.18-5a1.31,1.31,0,0,1,2,1.67l-3.55,4.25h0a.74.74,0,0,1-1.11-.94l2.73-3.28-.38-.31-2.6,3.13h0l-.13.15v0a1.21,1.21,0,0,0,1.84,1.53h0l.07-.08.06-.06h0l3.45-4.14h0a1.79,1.79,0,0,0-2.76-2.29h0l-4.36,5.23h0a2.51,2.51,0,0,0,3.83,3.2h0l3.52-4.22-.38-.31Z" style="fill:#FF5050"></path><path d="M239.4,383.6a2.41,2.41,0,0,0-1.75.74,2.43,2.43,0,0,0-4.17,1.68c0,2.16,4.17,4.77,4.17,4.77s4.17-2.61,4.17-4.77A2.42,2.42,0,0,0,239.4,383.6Z" style="fill:#FF5050"></path><path d="M228.66,383.6a2.42,2.42,0,0,0-1.75.74,2.38,2.38,0,0,0-1.74-.74,2.42,2.42,0,0,0-2.43,2.42c0,2.16,4.17,4.77,4.17,4.77s4.18-2.61,4.18-4.77A2.42,2.42,0,0,0,228.66,383.6Z" style="fill:#FF5050"></path><g style="opacity:0.4"><path d="M239.4,383.6a2.41,2.41,0,0,0-1.75.74,2.43,2.43,0,0,0-4.17,1.68c0,2.16,4.17,4.77,4.17,4.77s4.17-2.61,4.17-4.77A2.42,2.42,0,0,0,239.4,383.6Z" style="fill:#fff"></path><path d="M228.66,383.6a2.42,2.42,0,0,0-1.75.74,2.38,2.38,0,0,0-1.74-.74,2.42,2.42,0,0,0-2.43,2.42c0,2.16,4.17,4.77,4.17,4.77s4.18-2.61,4.18-4.77A2.42,2.42,0,0,0,228.66,383.6Z" style="fill:#fff"></path></g><path d="M230,347.4l-.79,0-1.67-2.45,0-1.58s-1.22-.11-1.13,2-.05,1.55-.05,1.55a12.91,12.91,0,0,0-2.83.16,26.48,26.48,0,0,0-.36,4.14,1.52,1.52,0,0,0,1,1.56,1,1,0,0,0,.28,0c.65,0,4-.42,4-.42l1.37,0Z" style="fill:#455a64"></path><polygon points="232.26 347.03 231.63 352.44 230.27 352.4 230.41 347.09 232.26 347.03" style="fill:#455a64"></polygon><path d="M243.55,347.4l-.79,0-1.67-2.45,0-1.58s-1.22-.11-1.13,2-.05,1.55-.05,1.55a12.83,12.83,0,0,0-2.82.16,26.13,26.13,0,0,0-.37,4.14,1.53,1.53,0,0,0,1,1.56.86.86,0,0,0,.28,0c.65,0,4-.42,4-.42l1.37,0Z" style="fill:#455a64"></path><polygon points="245.83 347.03 245.2 352.44 243.85 352.4 243.99 347.09 245.83 347.03" style="fill:#455a64"></polygon><path d="M223.2,335.73h1v4.56h-1Z" style="fill:#263238"></path><path d="M228.27,338.91h-2.5a.88.88,0,0,0,.95.66,1.11,1.11,0,0,0,.83-.32l.51.56a1.74,1.74,0,0,1-1.37.53,1.71,1.71,0,0,1-1.88-1.7,1.68,1.68,0,0,1,1.76-1.71,1.64,1.64,0,0,1,1.72,1.72A2.46,2.46,0,0,1,228.27,338.91Zm-2.51-.56h1.63a.83.83,0,0,0-1.63,0Z" style="fill:#263238"></path><path d="M232.15,337l-1.39,3.31h-1L228.38,337h1l.91,2.25.95-2.25Z" style="fill:#263238"></path><path d="M232.42,336a.56.56,0,0,1,.6-.54.54.54,0,0,1,.6.52.6.6,0,0,1-1.2,0Zm.12,1h1v3.31h-1Z" style="fill:#263238"></path><path d="M234.39,335.73h1v4.56h-1Z" style="fill:#263238"></path><path d="M235.8,340.29h3.07v.56H235.8Z" style="fill:#263238"></path><path d="M239,341.35l.26-.69a.76.76,0,0,0,.41.11c.24,0,.39-.15.39-.48V337h1v3.31a1.14,1.14,0,0,1-1.25,1.24A1.42,1.42,0,0,1,239,341.35Zm.94-5.36a.55.55,0,0,1,.6-.54.54.54,0,0,1,.6.52.6.6,0,0,1-1.2,0Z" style="fill:#263238"></path><path d="M245.23,337v3.31h-.91v-.39a1.42,1.42,0,0,1-2.44-1V337h1v1.73c0,.55.24.8.67.8s.76-.28.76-.89V337Z" style="fill:#263238"></path><path d="M246.12,335.73h1v4.56h-1Z" style="fill:#263238"></path><path d="M247.85,336a.55.55,0,0,1,.6-.54.54.54,0,0,1,.59.52.6.6,0,0,1-1.19,0Zm.12,1h1v3.31h-1Z" style="fill:#263238"></path><path d="M252.74,338.4v1.89h-.89v-.41a1.1,1.1,0,0,1-1,.46c-.78,0-1.24-.43-1.24-1s.41-1,1.42-1h.76c0-.41-.24-.65-.76-.65a1.52,1.52,0,0,0-1,.31l-.35-.68a2.64,2.64,0,0,1,1.43-.4C252.16,336.93,252.74,337.4,252.74,338.4Zm-1,.85v-.34h-.65c-.45,0-.59.16-.59.39s.2.4.54.4A.7.7,0,0,0,251.78,339.25Z" style="fill:#263238"></path><path d="M223.17,379.22l.55-.66a1,1,0,0,0,.8.47c.4,0,.61-.24.61-.71v-2.05h-1.52v-.8h2.51v2.79a1.39,1.39,0,0,1-1.55,1.59A1.71,1.71,0,0,1,223.17,379.22Z" style="fill:#263238"></path><path d="M226.78,378.12a1.82,1.82,0,1,1,1.83,1.71A1.71,1.71,0,0,1,226.78,378.12Zm2.67,0a.85.85,0,1,0-1.69,0,.85.85,0,1,0,1.69,0Z" style="fill:#263238"></path><path d="M234.44,377.88v1.9h-1V378c0-.53-.25-.78-.67-.78s-.79.28-.79.89v1.64h-1v-4.57h1v1.6a1.42,1.42,0,0,1,1-.39A1.29,1.29,0,0,1,234.44,377.88Z" style="fill:#263238"></path><path d="M238.68,377.88v1.9h-1V378c0-.53-.25-.78-.68-.78s-.79.28-.79.89v1.64h-1v-3.31h.92v.39a1.42,1.42,0,0,1,1.09-.44A1.29,1.29,0,0,1,238.68,377.88Z" style="fill:#263238"></path><path d="M239.11,379.78h3.07v.55h-3.07Z" style="fill:#263238"></path><path d="M244,375.47v4.31h-1v-3.51h-.86v-.8Z" style="fill:#263238"></path><path d="M248,379v.81h-3.25v-.65l1.66-1.57c.38-.36.45-.58.45-.79s-.24-.54-.69-.54a1.05,1.05,0,0,0-.89.44l-.73-.47a2,2,0,0,1,1.71-.8c1,0,1.6.49,1.6,1.27a1.73,1.73,0,0,1-.72,1.36l-1,.94Z" style="fill:#263238"></path><path d="M239.4,383.6a1.25,1.25,0,0,1,.8,0,2.48,2.48,0,0,1,1.64,1.5,2.32,2.32,0,0,1,0,1.61,5,5,0,0,1-.94,1.57,14.9,14.9,0,0,1-3.16,2.69l-.14.09-.13-.09a17.15,17.15,0,0,1-1.61-1.16,9.83,9.83,0,0,1-2.2-2.36,3.05,3.05,0,0,1-.47-1.51,2.66,2.66,0,0,1,.45-1.42,2.63,2.63,0,0,1,2.25-1.15,2.52,2.52,0,0,1,1.81.83h-.2a2.34,2.34,0,0,1,1.33-.66c.34-.05.52,0,.52,0a4.29,4.29,0,0,1-.49.12,2.48,2.48,0,0,0-1.16.72l-.09.1-.11-.1a2.29,2.29,0,0,0-1.61-.65,2.24,2.24,0,0,0-1.87,1,2.18,2.18,0,0,0-.35,1.18,2.62,2.62,0,0,0,.42,1.24,9.49,9.49,0,0,0,2.1,2.21,16.87,16.87,0,0,0,1.55,1.13h-.27a15.42,15.42,0,0,0,3.09-2.54,5,5,0,0,0,.9-1.41,2,2,0,0,0,0-1.36,2.38,2.38,0,0,0-1.38-1.45C239.68,383.63,239.4,383.64,239.4,383.6Z" style="fill:#263238"></path><path d="M228.66,383.6a1.29,1.29,0,0,1,.81,0,2.47,2.47,0,0,1,1.63,1.5,2.32,2.32,0,0,1,.05,1.61,4.83,4.83,0,0,1-.94,1.57,14.9,14.9,0,0,1-3.16,2.69l-.13.09-.14-.09a17.15,17.15,0,0,1-1.61-1.16,9.59,9.59,0,0,1-2.19-2.36,3,3,0,0,1-.48-1.51,2.62,2.62,0,0,1,2.71-2.57,2.56,2.56,0,0,1,1.81.83h-.21a2.34,2.34,0,0,1,1.33-.66c.34-.05.52,0,.52,0a4.29,4.29,0,0,1-.49.12,2.42,2.42,0,0,0-1.15.72l-.1.1-.11-.1a2.29,2.29,0,0,0-1.61-.65A2.19,2.19,0,0,0,223,386a2.42,2.42,0,0,0,.42,1.24,9.44,9.44,0,0,0,2.09,2.21,16.87,16.87,0,0,0,1.55,1.13h-.27a15.42,15.42,0,0,0,3.09-2.54,4.78,4.78,0,0,0,.9-1.41,2,2,0,0,0,0-1.36,2.39,2.39,0,0,0-1.37-1.45C229,383.63,228.66,383.64,228.66,383.6Z" style="fill:#263238"></path><circle cx="199.91" cy="340.37" r="16.71" transform="translate(-182.12 241.05) rotate(-45)" style="fill:#e0e0e0"></circle><path d="M190.08,341.73a2.87,2.87,0,0,0-.65,1.62,9.55,9.55,0,0,0,0,1.77,44,44,0,0,1,0,7.35,6.65,6.65,0,0,0,2.83-4.14,11.27,11.27,0,0,0-.11-5.1,2.8,2.8,0,0,0-.56-1.31,1.1,1.1,0,0,0-1.3-.32" style="fill:#455a64"></path><path d="M192.86,335.83a2.19,2.19,0,0,0,.13-2.16,3.29,3.29,0,0,0-1.62-1.52,4.47,4.47,0,0,0-5.48,1.66,1.82,1.82,0,0,0,0,2.19c.23.22.57.39.61.71s-.23.56-.46.79a3,3,0,0,0,2.15,5.09c1.62,0,3-1.29,4.61-1.44" style="fill:#263238"></path><path d="M190.88,335.54c-1.07,1.94-1.7,5-.43,7.07l1.1-.2c1-2.53,1.42-5.91,2.28-8.47A4,4,0,0,0,190.88,335.54Z" style="fill:#455a64"></path><path d="M192.85,334.24c0-.86.77-1.52,1.57-1.84a11.54,11.54,0,0,0,2.4-.91,11.74,11.74,0,0,0,1.6-1.63,5.29,5.29,0,0,1,8.9,2.43,3.45,3.45,0,0,1-.87,3.48c-1.12,1-2.78.74-4.21.44s-3.06-.58-4.26.26a6.1,6.1,0,0,0-1.58,2.1,3.76,3.76,0,0,1-1.83,1.84c-.84.28-2-.21-2-1.1" style="fill:#263238"></path><path d="M192.91,334.71a2.43,2.43,0,0,1-.95,1.88,3.36,3.36,0,0,0-1.2,1.77c-.1.84.51,1.67.33,2.5a6.08,6.08,0,0,1-.77,1.41,3,3,0,0,0-.15,2.21,9.66,9.66,0,0,0,1.06,2.91,11.61,11.61,0,0,0,5.65,3.37,22.18,22.18,0,0,0,6.25.35c1.71-.11,3.68,0,5.1-2.38a17.59,17.59,0,0,0,1.5-4.21,6.61,6.61,0,0,0,.28-3.62c-.21-.68-.62-1.29-.82-2a15.57,15.57,0,0,1-.26-2.66,6.09,6.09,0,0,0-8.68-4.81" style="fill:#263238"></path><path d="M208.11,337.67c-.16-2.46-1.79-5.46-4.24-5.2l-7.63,1.95a1.43,1.43,0,0,0-1.28,1.46l.49,16.76a4.43,4.43,0,0,0,4.52,4.3h0a4.44,4.44,0,0,0,4.33-4.42v-2.14s3.14-.53,3.78-4.62A43.33,43.33,0,0,0,208.11,337.67Z" style="fill:#a36957"></path><path d="M206.75,340.52a.52.52,0,0,1-.51.53.49.49,0,0,1-.54-.47.53.53,0,0,1,.5-.53A.51.51,0,0,1,206.75,340.52Z" style="fill:#263238"></path><path d="M207.39,339.4c-.07.07-.46-.22-1-.22s-1,.29-1,.22,0-.16.22-.29a1.46,1.46,0,0,1,.83-.26,1.4,1.4,0,0,1,.82.27C207.36,339.25,207.42,339.37,207.39,339.4Z" style="fill:#263238"></path><path d="M201.33,340.46a.53.53,0,0,1-.5.53.51.51,0,0,1-.55-.47.52.52,0,0,1,.51-.53A.49.49,0,0,1,201.33,340.46Z" style="fill:#263238"></path><path d="M201.84,339.52c-.07.07-.46-.22-1-.22s-1,.29-1,.22,0-.16.22-.29a1.46,1.46,0,0,1,.83-.26,1.4,1.4,0,0,1,.82.26C201.81,339.37,201.87,339.49,201.84,339.52Z" style="fill:#263238"></path><path d="M203.9,343.7a3.94,3.94,0,0,1,.91-.16c.15,0,.28-.05.31-.15a.75.75,0,0,0-.1-.42c-.13-.35-.28-.72-.43-1.1a19.83,19.83,0,0,1-1-2.87,18.85,18.85,0,0,1,1.19,2.78c.14.39.28.76.41,1.11a.81.81,0,0,1,.08.56.4.4,0,0,1-.24.22l-.24,0A3.27,3.27,0,0,1,203.9,343.7Z" style="fill:#263238"></path><path d="M204.3,350.38a10.33,10.33,0,0,1-5.48-1.45s1.34,2.81,5.43,2.42Z" style="fill:#7a4534"></path><path d="M203.66,345.06a1,1,0,0,0-.91-.37.93.93,0,0,0-.64.34.59.59,0,0,0,0,.68.68.68,0,0,0,.74.18,2,2,0,0,0,.72-.43.65.65,0,0,0,.16-.17.2.2,0,0,0,0-.21" style="fill:#FF5050"></path><path d="M202.24,344.1c.09,0,.09.6.62,1s1.17.36,1.18.45-.15.12-.42.13a1.52,1.52,0,0,1-1-.35,1.31,1.31,0,0,1-.48-.87C202.13,344.25,202.2,344.09,202.24,344.1Z" style="fill:#263238"></path><path d="M202,337.87c-.06.15-.62.08-1.29.16s-1.19.26-1.28.13.05-.21.27-.36a2.2,2.2,0,0,1,1.95-.22C201.88,337.67,202,337.8,202,337.87Z" style="fill:#263238"></path><path d="M207.18,337.77c-.1.13-.49,0-1,0s-.86.09-.95,0,0-.2.19-.32a1.34,1.34,0,0,1,.78-.21,1.32,1.32,0,0,1,.76.25C207.17,337.58,207.22,337.71,207.18,337.77Z" style="fill:#263238"></path><path d="M193.38,347.87a3.64,3.64,0,0,0,4.33-4c-.13-1-.67-2-.33-3,.47-1.26,2.23-1.64,2.69-2.9.28-.73,0-1.58.34-2.29a2.71,2.71,0,0,1,1.69-1.31,7.14,7.14,0,0,0,2-.87,1.57,1.57,0,0,0,.56-1.93,39.22,39.22,0,0,0-8.93,2.17A3.45,3.45,0,0,0,194,334.9a3.68,3.68,0,0,0-.36,2.19l.51,11" style="fill:#263238"></path><path d="M193.64,349.28l-.07,0-.18-.14c-.16-.12-.39-.31-.68-.56a8.74,8.74,0,0,1-1-1,3.77,3.77,0,0,1-.76-1.69,2.57,2.57,0,0,1,.53-2.15,8.27,8.27,0,0,1,.95-.81,2.23,2.23,0,0,0,.74-1,13.4,13.4,0,0,0,.29-2.78,5.55,5.55,0,0,1,1.16-2.82,3.72,3.72,0,0,1,1.21-1,7.34,7.34,0,0,1,1.43-.49,3.29,3.29,0,0,0,1.26-.61,5.11,5.11,0,0,0,.91-1c.51-.73.89-1.51,1.38-2.16a5,5,0,0,1,.81-.85,3.07,3.07,0,0,1,1-.52,2,2,0,0,1,1.82.18,1.7,1.7,0,0,1,.65,1.22,1.3,1.3,0,0,1-.25.85.78.78,0,0,1-.17.16l-.06,0,.05-.06a.92.92,0,0,0,.15-.17A1.23,1.23,0,0,0,205,331a1.62,1.62,0,0,0-.64-1.15,2,2,0,0,0-1.72-.14,3,3,0,0,0-.9.51,4.43,4.43,0,0,0-.78.83c-.47.64-.84,1.42-1.37,2.17a5.09,5.09,0,0,1-.94,1,3.43,3.43,0,0,1-1.31.65,7,7,0,0,0-1.4.48,3.58,3.58,0,0,0-1.15.94,5.38,5.38,0,0,0-1.13,2.73,13.1,13.1,0,0,1-.3,2.82,2.42,2.42,0,0,1-.8,1.08,7.53,7.53,0,0,0-.94.79,2.41,2.41,0,0,0-.52,2,3.79,3.79,0,0,0,.72,1.65,8.14,8.14,0,0,0,.93,1c.28.26.51.45.66.58A2.46,2.46,0,0,1,193.64,349.28Z" style="fill:#455a64"></path><path d="M189.94,342a4,4,0,0,0-2.47,2.61,19,19,0,0,1-1.36,3.47,3.38,3.38,0,0,0,2.41-.81,4.12,4.12,0,0,0,1.23-1.12c.79-1.25.15-2.95.64-4.35" style="fill:#455a64"></path><path d="M190.82,341.36a2.91,2.91,0,0,1-.55-.34,2.42,2.42,0,0,1-.51-.42,2.14,2.14,0,0,1,.56.34A2.2,2.2,0,0,1,190.82,341.36Z" style="fill:#fafafa"></path><path d="M190.94,340.08a3.5,3.5,0,0,1-.61-.5,3.21,3.21,0,0,1-.55-.56,3.17,3.17,0,0,1,.61.49A4.06,4.06,0,0,1,190.94,340.08Z" style="fill:#fafafa"></path><path d="M190.81,338s-.18-.1-.36-.26-.31-.3-.29-.32.17.09.35.25A1.22,1.22,0,0,1,190.81,338Z" style="fill:#fafafa"></path><path d="M191.83,336.66a1.7,1.7,0,0,1-.52-.45,2,2,0,0,1-.37-.57s.2.23.44.51A4.21,4.21,0,0,1,191.83,336.66Z" style="fill:#fafafa"></path><path d="M192.82,335.57a2.74,2.74,0,0,1-.49-.43,3,3,0,0,1-.43-.5,3,3,0,0,1,.5.43A2.27,2.27,0,0,1,192.82,335.57Z" style="fill:#fafafa"></path><path d="M189.54,352.3a.82.82,0,0,0,0-.1v-1.38c0-.92,0-2.17,0-3.56,0-.7,0-1.36.05-2a15.16,15.16,0,0,1,.17-1.6,8.47,8.47,0,0,1,.25-1.06,2.35,2.35,0,0,1,.1-.27c0-.07,0-.1,0-.1s0,.14-.1.38a9.44,9.44,0,0,0-.22,1.06,13.26,13.26,0,0,0-.15,1.59c0,.6,0,1.26,0,2,0,1.39,0,2.64-.06,3.57,0,.44,0,.81,0,1.08v.29A.36.36,0,0,1,189.54,352.3Z" style="fill:#263238"></path><path d="M191.12,350.93a5,5,0,0,1-.82-.75,4.74,4.74,0,0,1-.7-.87s.35.36.77.8S191.13,350.91,191.12,350.93Z" style="fill:#fafafa"></path><path d="M192.09,349.06l-.41-.35c-.25-.23-.59-.54-.93-.91a5.33,5.33,0,0,1-.77-1.06c-.08-.14-.14-.26-.18-.35s-.05-.14,0-.14.1.18.27.46a7.54,7.54,0,0,0,.78,1c.34.37.68.68.91.92A2.31,2.31,0,0,1,192.09,349.06Z" style="fill:#fafafa"></path><path d="M188,347.6s-.08-.11-.16-.32a7.63,7.63,0,0,1-.3-.81c-.1-.32-.17-.61-.22-.83a1.76,1.76,0,0,1-.05-.35s.16.52.36,1.16S188,347.59,188,347.6Z" style="fill:#fafafa"></path><path d="M189.23,346.58s-.25-.77-.5-1.74-.43-1.77-.41-1.77a15.28,15.28,0,0,1,.5,1.74C189.07,345.78,189.25,346.57,189.23,346.58Z" style="fill:#fafafa"></path><path d="M189.72,343.17a.9.9,0,0,1-.24-.4,1.17,1.17,0,0,1-.08-.44h0s0,0,0,0v0h0c0,.06.08.22.15.41A3,3,0,0,1,189.72,343.17Z" style="fill:#fafafa"></path><path d="M190.36,354.08l5.09-1.44,8.85-.12,5.63,1.22a15.53,15.53,0,0,1-10,3.33C193.71,357,190.36,354.08,190.36,354.08Z" style="fill:#455a64"></path><circle cx="198.94" cy="380.35" r="16.69" transform="translate(-207.13 519.47) rotate(-81.3)" style="fill:#e0e0e0"></circle><path d="M198.42,396.41a4.87,4.87,0,0,1-5.33-4.37l-1.47-14.76a7.12,7.12,0,0,1,6.55-7.83h.11a7.44,7.44,0,0,1,7.54,6.73c.33,3.39.64,7.07.65,8.88,0,3.85-3.82,4.51-3.82,4.51s.06.63.15,1.51a4.89,4.89,0,0,1-4.38,5.33Z" style="fill:#ffbe9d"></path><path d="M202.65,389.57a9.33,9.33,0,0,1-5-1.4,4.88,4.88,0,0,0,5.13,2.33Z" style="fill:#eb996e"></path><path d="M204.3,378.76a.54.54,0,0,1-.52.56.52.52,0,0,1-.57-.48.55.55,0,0,1,.52-.57A.52.52,0,0,1,204.3,378.76Z" style="fill:#263238"></path><path d="M205,377.81c-.07.08-.49-.23-1.08-.21s-1,.31-1.08.24,0-.16.22-.3a1.5,1.5,0,0,1,1.73,0C205,377.65,205,377.78,205,377.81Z" style="fill:#263238"></path><path d="M198.66,379a.55.55,0,0,1-.52.56.53.53,0,0,1-.58-.48.56.56,0,0,1,.52-.57A.53.53,0,0,1,198.66,379Z" style="fill:#263238"></path><path d="M199.19,378c-.06.07-.49-.23-1.08-.22s-1,.32-1.08.24,0-.16.22-.3a1.47,1.47,0,0,1,.87-.28,1.38,1.38,0,0,1,.86.26C199.16,377.86,199.23,378,199.19,378Z" style="fill:#263238"></path><path d="M201.41,382.37a3.29,3.29,0,0,1,1-.19c.15,0,.29-.05.31-.16a.73.73,0,0,0-.1-.44l-.47-1.14a19,19,0,0,1-1.05-3,20.71,20.71,0,0,1,1.29,2.89c.15.41.3.79.45,1.15a.84.84,0,0,1,.08.59.37.37,0,0,1-.24.23,1.38,1.38,0,0,1-.26,0A4.29,4.29,0,0,1,201.41,382.37Z" style="fill:#263238"></path><path d="M199.68,382.8c.09,0,.1.64.66,1.09s1.24.36,1.25.45-.15.13-.44.14a1.63,1.63,0,0,1-1-.34,1.44,1.44,0,0,1-.52-.91C199.56,383,199.63,382.8,199.68,382.8Z" style="fill:#263238"></path><path d="M199.31,375.7c-.06.16-.65.09-1.34.19s-1.25.29-1.35.15.06-.22.28-.38a2.33,2.33,0,0,1,1-.37,2.23,2.23,0,0,1,1.05.11C199.2,375.5,199.33,375.62,199.31,375.7Z" style="fill:#263238"></path><path d="M204.76,376.1c-.11.14-.52,0-1,0s-.9.1-1,0,0-.21.2-.34a1.37,1.37,0,0,1,.81-.23,1.35,1.35,0,0,1,.81.26C204.74,375.9,204.8,376,204.76,376.1Z" style="fill:#263238"></path><path d="M195.73,373l0,0a3,3,0,0,0-1.09,2v.08c-.14,1.1-.09,2.22-.23,3.31s0,1.92-1.07,2.27a1.44,1.44,0,0,1-1.56-.46.88.88,0,0,1-.14-.5c-.25-2.65-.89-3.62-.93-6.39a2.35,2.35,0,0,1,.94-1.92c.57-.42,1.28-.87,1.93-.57s1.5,1.48,2,2" style="fill:#263238"></path><path d="M193,379c-.07,0-2.66-.74-2.53,1.89a2,2,0,0,0,2.74,1.88C193.16,382.69,193,379,193,379Z" style="fill:#ffbe9d"></path><path d="M192.31,381.81l-.12.08a.53.53,0,0,1-.34,0,1.14,1.14,0,0,1-.58-1,1.56,1.56,0,0,1,.1-.66.52.52,0,0,1,.33-.37.23.23,0,0,1,.27.11c0,.07,0,.13,0,.13s.06-.05,0-.15a.25.25,0,0,0-.11-.16.38.38,0,0,0-.26-.06.68.68,0,0,0-.46.43,1.63,1.63,0,0,0-.12.74,1.21,1.21,0,0,0,.72,1.11.56.56,0,0,0,.42-.09C192.31,381.88,192.32,381.82,192.31,381.81Z" style="fill:#eb996e"></path><path d="M193.46,371.21c-.66-1,1.09-2.59,2.38-3s3,.18,4.31.58a7.11,7.11,0,0,0,2.49.58,6,6,0,0,0,1.66-.46,4.3,4.3,0,0,1,1.68-.36,1.59,1.59,0,0,1,1.4.86,1,1,0,0,1-.64,1.35,1.29,1.29,0,1,1,.38,2.39c.37-.29.95.17.91.64a1.37,1.37,0,0,1-.88,1,4.94,4.94,0,0,1-3.51,0c-1.14-.36-2.21-.94-3.34-1.33s-3-1.1-4.15-.68c-.83.3-1.39,1.32-1.86,1.1a1.55,1.55,0,0,1-.85-1.17,4.66,4.66,0,0,1,0-1.49" style="fill:#263238"></path><path d="M207.05,370.66s-.13.2-.41.51a3.55,3.55,0,0,1-1.44,1,3.37,3.37,0,0,1-2.51-.06,12,12,0,0,1-2.57-1.92,5.49,5.49,0,0,0-3-1.37,3,3,0,0,0-2.5.91,2.25,2.25,0,0,0-.57,1.71,1.64,1.64,0,0,0,.12.48q.08.17.09.15a3.64,3.64,0,0,1-.11-.64,2.2,2.2,0,0,1,.6-1.57,2.86,2.86,0,0,1,2.35-.8,5.28,5.28,0,0,1,2.83,1.33,11.47,11.47,0,0,0,2.64,1.94,3.47,3.47,0,0,0,2.67,0,3.51,3.51,0,0,0,1.46-1.07,2.34,2.34,0,0,0,.27-.42C207,370.72,207.06,370.67,207.05,370.66Z" style="fill:#455a64"></path><path d="M192.28,378.89s.11-.07.2-.28a1.8,1.8,0,0,0,.12-1c-.07-.84-.84-1.74-.95-2.91a2.61,2.61,0,0,1,.26-1.57,2,2,0,0,1,1-.86,1.66,1.66,0,0,1,.87-.14c.22,0,.33.08.34.06s-.1-.09-.32-.16a1.64,1.64,0,0,0-1,.06,2.12,2.12,0,0,0-1.1.92,2.76,2.76,0,0,0-.32,1.72,4.85,4.85,0,0,0,.53,1.65,5,5,0,0,1,.5,1.26A2,2,0,0,1,192.28,378.89Z" style="fill:#455a64"></path><path d="M189.4,394.05l3.64-2.48c4.07,1.11,7.45,1.09,9.76-.49l6.14,2.63a15.48,15.48,0,0,1-10,3.33C192.74,396.94,189.4,394.05,189.4,394.05Z" style="fill:#FF5050"></path><circle cx="197.45" cy="101.12" r="22.01" transform="translate(-13.67 169.24) rotate(-45)" style="fill:#e0e0e0"></circle><path d="M211.87,110.45c.27-1.79,1.2-3.42,1.48-5.2a13.68,13.68,0,0,0-.68-5.69c-.95-3.47-2.13-7-4.54-9.69s-6.32-4.29-9.69-3l-3.56,3.09c-2.47.64-4,3.1-4.92,5.48s-1.55,5-3.28,6.86c-1.09,1.18-2.66,2.18-2.84,3.77s1,3.18.28,4.52c-.57,1-2,1.26-2.66,2.25s.43,3.87.43,3.87,7.17,9.51,23,5.43c4.3-1.11,6.3-3.58,8.63-6A7.27,7.27,0,0,1,211.87,110.45Z" style="fill:#263238"></path><path d="M184.81,119.34l7.27-2.11,12-.62,7.31,1.72s-3.66,5.19-14.57,4.78c-7-.26-9.68-2.36-9.68-2.36" style="fill:#FF5050"></path><path d="M189.76,88.41a9.22,9.22,0,0,1,6.71-3.28,13.75,13.75,0,0,1,10.17,3,12.43,12.43,0,0,1,3.84,8.84,8.33,8.33,0,0,1-.79,3.33,6.1,6.1,0,0,1-2.85,2.87c-1.07.46-1.48.08-2.29-.76a5.25,5.25,0,0,1-1-1.87,26.09,26.09,0,0,0-4.18-8,11.17,11.17,0,0,0-7.7-4.21" style="fill:#455a64"></path><path d="M187.86,94.71a7.2,7.2,0,0,1,1.9-6.3,9.45,9.45,0,0,1,4.5-2.38,10.09,10.09,0,0,1,6.77.5,6.58,6.58,0,0,1,3.82,5.37A14.18,14.18,0,0,0,205,95a2.41,2.41,0,0,1,.2,1.33,1.09,1.09,0,0,1-1,.66,2.46,2.46,0,0,1-1.2-.3,13.1,13.1,0,0,1-3.31-2.64" style="fill:#263238"></path><path d="M203.69,92.3l-10-3.08c-3.21-.51-5.57,3.36-5.95,6.6a58.07,58.07,0,0,0-.5,10.71c.58,5.45,4.69,6.36,4.69,6.36s0,1.27,0,2.79a6,6,0,0,0,7.42,5.9l.25-.08a6,6,0,0,0,4.25-5.35l1.44-21.83A1.92,1.92,0,0,0,203.69,92.3Z" style="fill:#ffbe9d"></path><path d="M189.38,99.42a.7.7,0,0,0,.63.74.67.67,0,0,0,.75-.59.7.7,0,0,0-.63-.74A.66.66,0,0,0,189.38,99.42Z" style="fill:#263238"></path><path d="M188.61,98.16c.08.1.63-.27,1.37-.22s1.28.44,1.36.35,0-.21-.26-.39a1.92,1.92,0,0,0-2.19-.11C188.65,98,188.57,98.12,188.61,98.16Z" style="fill:#263238"></path><path d="M196.94,100a.7.7,0,0,0,.63.74.66.66,0,0,0,.75-.59.69.69,0,0,0-.63-.73A.66.66,0,0,0,196.94,100Z" style="fill:#263238"></path><path d="M195.94,98.68c.08.1.63-.26,1.37-.22s1.28.44,1.36.36,0-.21-.26-.4a2,2,0,0,0-1.09-.39,1.71,1.71,0,0,0-1.09.29C196,98.48,195.9,98.64,195.94,98.68Z" style="fill:#263238"></path><path d="M192.94,104.08a4.7,4.7,0,0,0-1.2-.28c-.19,0-.37-.08-.39-.21a1,1,0,0,1,.15-.56c.21-.45.42-.93.64-1.42a26.28,26.28,0,0,0,1.47-3.73,25.12,25.12,0,0,0-1.76,3.6c-.22.5-.43,1-.62,1.43a1.17,1.17,0,0,0-.14.75.48.48,0,0,0,.3.29,1,1,0,0,0,.32.06A5.19,5.19,0,0,0,192.94,104.08Z" style="fill:#263238"></path><path d="M192,112.89a13.87,13.87,0,0,0,7.35-1.55s-2,3.76-7.36,3Z" style="fill:#eb996e"></path><path d="M193.16,105.9a1.34,1.34,0,0,1,1.23-.44,1.19,1.19,0,0,1,.83.5.78.78,0,0,1,0,.89.89.89,0,0,1-1,.2,2.86,2.86,0,0,1-.93-.62,1.1,1.1,0,0,1-.2-.23.26.26,0,0,1,0-.28" style="fill:#eb996e"></path><path d="M195.11,104.71c-.12,0-.16.8-.89,1.34s-1.58.4-1.59.52.18.16.55.19a2,2,0,0,0,1.32-.38,1.8,1.8,0,0,0,.7-1.13C195.25,104.92,195.17,104.71,195.11,104.71Z" style="fill:#263238"></path><path d="M195.93,96.42c.07.21.82.15,1.69.3s1.56.43,1.69.25-.06-.28-.33-.49a2.95,2.95,0,0,0-2.57-.42C196.08,96.17,195.91,96.32,195.93,96.42Z" style="fill:#263238"></path><path d="M189,94.91c.12.17.64,0,1.26,0s1.14.17,1.27,0,0-.26-.24-.43a1.78,1.78,0,0,0-1-.33,1.68,1.68,0,0,0-1,.29C189,94.65,188.94,94.82,189,94.91Z" style="fill:#263238"></path><path d="M203.28,103.31c0-.41.54-1.33.94-1.37,1.07-.11,3,.07,2.86,2.77-.17,3.69-3.84,2.76-3.84,2.66S203.2,104.7,203.28,103.31Z" style="fill:#ffbe9d"></path><path d="M204.43,106s.06,0,.17.1a.58.58,0,0,0,.48,0,1.59,1.59,0,0,0,.8-1.39,2.17,2.17,0,0,0-.14-.93.74.74,0,0,0-.46-.51.32.32,0,0,0-.39.16c0,.1,0,.17,0,.18s-.08-.07,0-.22a.38.38,0,0,1,.15-.22.5.5,0,0,1,.36-.08.89.89,0,0,1,.65.6,2.33,2.33,0,0,1,.18,1,1.67,1.67,0,0,1-1,1.55.68.68,0,0,1-.58-.12C204.43,106.11,204.42,106,204.43,106Z" style="fill:#eb996e"></path><path d="M193.25,88.56a5,5,0,0,0,3.14,4.09c.9.35,2,.51,2.5,1.34s.09,2,.55,2.88c.64,1.2,2.62,1.29,3.07,2.58.2.57,0,1.21.23,1.77a1.7,1.7,0,0,0,2,.93,2.69,2.69,0,0,0,1.72-1.53,7,7,0,0,0,.56-2.31,12.91,12.91,0,0,0-.05-4.68c-.77-3.19-5-7.82-8.26-7.83" style="fill:#263238"></path><path d="M199.44,87.42a8.19,8.19,0,0,0-6,2.64,2.57,2.57,0,0,1,.6-.81,6.51,6.51,0,0,1,4.36-1.93A2.34,2.34,0,0,1,199.44,87.42Z" style="fill:#455a64"></path><path d="M195.34,87A6,6,0,0,0,194,88.23a6.16,6.16,0,0,0-.7,1.73s-.08-.22,0-.58a2.94,2.94,0,0,1,.51-1.31,3.07,3.07,0,0,1,1-.94C195.11,87,195.33,86.93,195.34,87Z" style="fill:#455a64"></path></g><g id="freepik--Table--inject-174"><path d="M476.82,480.62c0,.14-99.7.26-222.66.26s-222.69-.12-222.69-.26,99.68-.26,222.69-.26S476.82,480.48,476.82,480.62Z" style="fill:#263238"></path></g><g id="freepik--Plant--inject-174"><path d="M129.18,400.85c1.09-3.78,3.43-7.43,7-9,3.76-1.62,8.11-.7,11.95.7s7.62,3.26,11.71,3.52,8.69-1.69,9.91-5.59c1.15-3.67-1.06-7.59-3.83-10.25a24.2,24.2,0,0,0-39.65,9.51" style="fill:#FF5050"></path><g style="opacity:0.5"><path d="M129.18,400.85c1.09-3.78,3.43-7.43,7-9,3.76-1.62,8.11-.7,11.95.7s7.62,3.26,11.71,3.52,8.69-1.69,9.91-5.59c1.15-3.67-1.06-7.59-3.83-10.25a24.2,24.2,0,0,0-39.65,9.51"></path></g><path d="M96.83,417.25c-6-5.69-5.69-15.6-2.7-23.3s9.51-13.62,16.79-17.52a53.18,53.18,0,0,1,46.36-1.5,22,22,0,0,0-17.79,10.44c-3.28,5.46-4,12.07-6.72,17.83a28.07,28.07,0,0,1-35.94,14.05" style="fill:#FF5050"></path><path d="M94,383.06c-6.63-7.83-7.51-20.4-6.54-30.61s3.35-20.5,1.74-30.63c-1-6-3.29-11.74-4.07-17.76s.32-12.85,5-16.74c5.36-4.47,13.82-3.42,19.4.78s8.82,10.8,11.19,17.37c5.19,14.45,7.1,30.46,2.83,45.21s-14.28,27.93-29,32.38" style="fill:#FF5050"></path><path d="M90.77,447.29a5.19,5.19,0,0,1,0-.9c0-.59,0-1.46.05-2.58.09-2.25.3-5.5.81-9.49a124.17,124.17,0,0,1,2.55-13.88,63.84,63.84,0,0,1,6.33-16.08,66.82,66.82,0,0,1,10.36-13.84,65.82,65.82,0,0,1,10.85-9c1.66-1.14,3.26-2,4.64-2.82s2.65-1.35,3.66-1.84l2.39-1a5.33,5.33,0,0,1,.84-.32,5.38,5.38,0,0,1-.8.42L130.08,377c-1,.52-2.21,1.15-3.6,1.92s-2.94,1.71-4.57,2.87a68.26,68.26,0,0,0-21,22.82c-6.1,10.67-7.77,21.88-9,29.74-.55,4-.82,7.21-1,9.45-.07,1.08-.12,1.94-.16,2.58A4.56,4.56,0,0,1,90.77,447.29Z" style="fill:#263238"></path><path d="M33.56,352.17c-12.27,7.41-12.23,14.15-10.18,20.51s9.58,10.78,15.82,8.4c3.53-1.35,6.09-4.42,8.27-7.5s4.24-6.38,7.3-8.6,7.5-3.06,10.57-.87" style="fill:#FF5050"></path><g style="opacity:0.5"><path d="M33.56,352.17c-12.27,7.41-12.23,14.15-10.18,20.51s9.58,10.78,15.82,8.4c3.53-1.35,6.09-4.42,8.27-7.5s4.24-6.38,7.3-8.6,7.5-3.06,10.57-.87"></path></g><path d="M24.37,360.29c3.21-4.43,11.14-5.72,16.14-3.5s8.68,6.6,12,11,6.47,9,11,12.06,10.9,4.15,15.43,1.08a13.28,13.28,0,0,0,5.24-9.08,30.21,30.21,0,0,0-.72-10.7c-1.09-5.14-2.85-10.52-7-13.79-4.59-3.64-11-3.82-16.82-3.62-6.72.22-13.54.72-19.85,3.05s-12.75,7.36-15.43,13.53" style="fill:#FF5050"></path><path d="M80.57,437.47a.94.94,0,0,1,0-.27c0-.21,0-.47,0-.79,0-.74-.07-1.76-.11-3.05-.08-2.69-.19-6.51-.32-11.2s-.34-10.36-.68-16.6-.82-13.11-1.76-20.25a65.86,65.86,0,0,0-2-10.28,52.58,52.58,0,0,0-3.76-9,51.71,51.71,0,0,0-4.74-7.45,49.52,49.52,0,0,0-5.18-5.69,38.49,38.49,0,0,0-9.19-6.26c-.6-.27-1.12-.54-1.59-.73l-1.2-.47-.73-.29A1,1,0,0,1,49,345a.88.88,0,0,1,.26.06l.76.25,1.22.42c.48.17,1,.43,1.62.69a36.52,36.52,0,0,1,9.36,6.17,49.14,49.14,0,0,1,5.28,5.69,51.9,51.9,0,0,1,4.83,7.49,53.25,53.25,0,0,1,3.83,9.08,65.41,65.41,0,0,1,2.06,10.37c1,7.17,1.4,14,1.72,20.29s.47,11.89.57,16.62.13,8.56.14,11.21c0,1.29,0,2.3,0,3,0,.33,0,.59,0,.8A.8.8,0,0,1,80.57,437.47Z" style="fill:#263238"></path><path d="M85,443a34.94,34.94,0,0,1-1.35-5.27,55.15,55.15,0,0,1-.56-14.8,97.58,97.58,0,0,1,4.68-21.48c2.51-7.9,5.93-16.34,8.85-25.42a117.68,117.68,0,0,0,3.53-13.44,122.8,122.8,0,0,0,1.74-12.83,187.12,187.12,0,0,0,.39-21.94c-.21-6.25-.55-11.3-.75-14.8q-.15-2.58-.24-4c0-.43,0-.78,0-1.05a1.55,1.55,0,0,1,0-.35,1.68,1.68,0,0,1,.06.35c0,.26.06.61.1,1,.08,1,.19,2.3.34,4,.27,3.49.66,8.54.93,14.8a181.62,181.62,0,0,1-.28,22,116.11,116.11,0,0,1-1.72,12.89,115.57,115.57,0,0,1-3.52,13.51c-2.93,9.1-6.37,17.54-8.9,25.4A99.82,99.82,0,0,0,83.47,423a57,57,0,0,0,.38,14.74c.3,1.71.58,3,.82,3.93.1.43.19.76.25,1S85,443,85,443Z" style="fill:#263238"></path><polygon points="115.41 448.56 57.79 448.56 56.47 437.47 115.41 437.47 115.41 448.56" style="fill:#455a64"></polygon><polygon points="63.97 447.3 71.18 480.56 102.49 480.56 109.23 447.3 63.97 447.3" style="fill:#455a64"></polygon><path d="M115.41,448.56c0,.15-12.67.24-28.29.19s-28.3-.2-28.3-.35,12.67-.24,28.3-.2S115.41,448.41,115.41,448.56Z" style="fill:#455a64"></path><path d="M105.52,465a23.37,23.37,0,0,0-5.08-2.91,18.18,18.18,0,0,0-6.17-1.24,21.6,21.6,0,0,0-7.58,1.39c-2.63.89-5.08,1.93-7.47,2.49a17.82,17.82,0,0,1-6.45.2,13.59,13.59,0,0,1-4.15-1.31,8.56,8.56,0,0,1-1-.64c-.22-.16-.33-.25-.31-.27s.49.29,1.4.71a14.77,14.77,0,0,0,4.11,1.13,18.1,18.1,0,0,0,6.29-.31c2.3-.57,4.76-1.62,7.4-2.52a21.53,21.53,0,0,1,7.78-1.37,17.45,17.45,0,0,1,6.3,1.38,16.56,16.56,0,0,1,3.76,2.19,11.53,11.53,0,0,1,.89.77C105.44,464.86,105.53,465,105.52,465Z" style="fill:#263238"></path><path d="M105.08,467.2a24.94,24.94,0,0,0-4.87-2.87,16.55,16.55,0,0,0-5.95-1.22,21.1,21.1,0,0,0-7.34,1.32c-2.54.84-4.92,1.83-7.2,2.44a18.55,18.55,0,0,1-6.2.7,10.52,10.52,0,0,1-4.06-1.09,8.27,8.27,0,0,1-1-.61c-.21-.16-.32-.25-.3-.27s.47.28,1.36.69a11.09,11.09,0,0,0,4,.89,18.8,18.8,0,0,0,6-.8c2.23-.62,4.59-1.62,7.16-2.48a21.36,21.36,0,0,1,7.52-1.3,16.25,16.25,0,0,1,9.69,3.55c.39.31.67.57.86.75A1.56,1.56,0,0,1,105.08,467.2Z" style="fill:#fff"></path><path d="M106.09,462.77a27.83,27.83,0,0,0-5.21-3.07,19.41,19.41,0,0,0-6.33-1.52,20.57,20.57,0,0,0-7.82,1.38A70.87,70.87,0,0,1,79,462.09a19.78,19.78,0,0,1-6.66,0,14.84,14.84,0,0,1-4.28-1.36,7.72,7.72,0,0,1-1-.64c-.23-.17-.34-.26-.33-.28s.51.3,1.46.73a16.28,16.28,0,0,0,4.25,1.16,20,20,0,0,0,6.51-.12A76.93,76.93,0,0,0,86.55,459a20.39,20.39,0,0,1,8-1.36,19.4,19.4,0,0,1,10.3,4,10.46,10.46,0,0,1,.92.8A1.52,1.52,0,0,1,106.09,462.77Z" style="fill:#fff"></path><path d="M115,448.74c0,.08-12.75.14-28.46.14S58,448.82,58,448.74s12.74-.13,28.47-.13S115,448.67,115,448.74Z" style="fill:#263238"></path></g><g id="freepik--music-notes--inject-174"><path d="M126.64,179.84a4.53,4.53,0,1,1-2.73-5.79A4.53,4.53,0,0,1,126.64,179.84Z" style="fill:#263238"></path><path d="M126.54,178.2c-.27.09-1.78-4.45-2.59-10.23s-1.42-10.42-1.17-10.47,1.35,4.57,2.15,10.32S126.8,178.12,126.54,178.2Z" style="fill:#263238"></path><path d="M132.33,155.62c.21.16-1.5,2.06-4.45,2.73s-5.32-.25-5.2-.49,2.32.16,5-.48S132.15,155.39,132.33,155.62Z" style="fill:#263238"></path><path d="M132.74,160.3c.23.14-1.39,2.11-4.32,2.56s-5.07-.88-4.9-1.08,2.18.53,4.74.09S132.55,160.08,132.74,160.3Z" style="fill:#263238"></path><path d="M84.8,117a8.11,8.11,0,1,1,2-11.29A8.1,8.1,0,0,1,84.8,117Z" style="fill:#263238"></path><path d="M86.35,114.46c-.75-.24,1.58-8.54,6.42-17.84s9-16.51,9.65-16.24-2.32,8.31-7.14,17.51S87.08,114.7,86.35,114.46Z" style="fill:#263238"></path><path d="M123,96.7c0,.65-6.8.57-13.66-3.94a18.94,18.94,0,0,1-6.95-7.64c-1.15-2.49-.87-4.3-.53-4.3s.85,1.41,2.26,3.32a25.89,25.89,0,0,0,6.78,6.28C117.08,94.49,123.23,95.83,123,96.7Z" style="fill:#263238"></path><path d="M105.42,133.28a8.12,8.12,0,1,1,2-11.3A8.12,8.12,0,0,1,105.42,133.28Z" style="fill:#263238"></path><path d="M107,130.77c-.75-.24,1.58-8.54,6.42-17.84s9-16.51,9.65-16.23-2.32,8.31-7.14,17.51S107.7,131,107,130.77Z" style="fill:#263238"></path><path d="M120.72,101.73c.06.73-6.42,1.07-13-2.92S98.36,89,99,88.69c.69-.45,4.18,4.19,10.14,7.7S120.8,100.9,120.72,101.73Z" style="fill:#263238"></path><path d="M206.52,147.8a2.25,2.25,0,1,1,.73-3.09A2.24,2.24,0,0,1,206.52,147.8Z" style="fill:#e0e0e0"></path><path d="M207,147.13c-.21-.07.56-2.33,2-4.83s2.72-4.44,2.9-4.36-.76,2.27-2.23,4.74S207.19,147.21,207,147.13Z" style="fill:#e0e0e0"></path><path d="M217.39,142.75c0,.18-1.89.06-3.73-1.28a5.31,5.31,0,0,1-1.81-2.22c-.28-.7-.18-1.2-.08-1.19s.21.4.58.95a7.17,7.17,0,0,0,1.78,1.83C215.77,142.05,217.45,142.51,217.39,142.75Z" style="fill:#e0e0e0"></path><path d="M212,152.61a2.25,2.25,0,1,1,.73-3.09A2.24,2.24,0,0,1,212,152.61Z" style="fill:#e0e0e0"></path><path d="M212.45,151.94c-.2-.08.56-2.34,2-4.84s2.72-4.44,2.91-4.35-.77,2.26-2.23,4.74S212.65,152,212.45,151.94Z" style="fill:#e0e0e0"></path><path d="M216.67,144.11c0,.2-1.79.2-3.55-1s-2.45-2.85-2.26-2.92,1.1,1.22,2.69,2.28S216.7,143.88,216.67,144.11Z" style="fill:#e0e0e0"></path><path d="M185.73,194.78a4.54,4.54,0,1,1-3.53-5.37A4.54,4.54,0,0,1,185.73,194.78Z" style="fill:#263238"></path><path d="M185.39,193.16c-.4.19-2.66-4.07-4.29-9.7s-2.74-10.16-2.36-10.31,2.27,4.26,3.87,9.85S185.78,193,185.39,193.16Z" style="fill:#263238"></path><path d="M193.39,171.8c.25.27-2.53,2.86-7,3.68a10.67,10.67,0,0,1-5.77-.41c-1.43-.57-2-1.41-1.87-1.54s.89.25,2.2.47a14.56,14.56,0,0,0,5.17-.07C190.13,173.21,193.13,171.37,193.39,171.8Z" style="fill:#263238"></path><path d="M200.38,193.42a4.54,4.54,0,1,1-3.53-5.36A4.54,4.54,0,0,1,200.38,193.42Z" style="fill:#263238"></path><path d="M200,191.81c-.4.19-2.66-4.07-4.29-9.71S193,172,193.39,171.8s2.27,4.26,3.87,9.85S200.43,191.62,200,191.81Z" style="fill:#263238"></path><path d="M194.4,174.73c.3.28-2.19,2.92-6.4,3.84s-7.58-.36-7.42-.74,3.3.08,7.08-.8S194.11,174.37,194.4,174.73Z" style="fill:#263238"></path></g></svg>